<svg xmlns="http://www.w3.org/2000/svg" viewBox="0 0 657.83 24.93"><title>3-underline</title><g id="Calque_2" data-name="Calque 2"><g id="svg2"><g id="layer1"><g id="main"><path id="path4259" d="M289.38,23.14c12.09-1.85,10-19.23,0-21.35C194.89,11.66,97.86,8.54,0,12.84,97.39,17.3,192,11.16,289.38,23.14Z"/><path id="path4261" d="M340.78,12.47c0,6.88-5.32,12.46-11.87,12.46S317,19.35,317,12.47,322.35,0,328.91,0,340.78,5.58,340.78,12.47Z"/><path id="path4263" d="M368.45,23.14c-12.09-1.85-10-19.23,0-21.35C462.94,11.66,560,8.54,657.83,12.84,560.43,17.3,465.84,11.16,368.45,23.14Z"/></g></g></g></g></svg>