<svg xmlns="http://www.w3.org/2000/svg" viewBox="0 0 58.75 81.48"><defs><style>.cls-1,.cls-3,.cls-5{fill:#001446;}.cls-1{opacity:0.17;}.cls-2{fill:#fff;}.cls-4{fill:#0b1b3c;}.cls-5{opacity:0.3;}</style></defs><title>astronaut_reading</title><g id="Calque_2" data-name="Calque 2"><g id="Layer_3" data-name="Layer 3"><ellipse class="cls-1" cx="29.38" cy="73.3" rx="29.38" ry="8.18"/></g><g id="Layer_1" data-name="Layer 1"><path class="cls-2" d="M16.72,55.46l-.62-.31a.44.44,0,0,1-.24-.35l-.35-3.61a19.22,19.22,0,0,0-.92,6c.41.27.82.56,1.22.88A3.26,3.26,0,0,1,16.72,55.46Z"/><path class="cls-2" d="M19.15,57a8.48,8.48,0,0,1-2.25,2l.76.7A12,12,0,0,0,19.15,57Z"/><path class="cls-2" d="M20.49,58.73a1.65,1.65,0,0,0,.26-1.27l-.68-.34a15.35,15.35,0,0,1-1.19,2.39A2.37,2.37,0,0,0,20.49,58.73Z"/><path class="cls-2" d="M45.49,45.41c.82-.83,1-2.55,1-3.76s-.13-1.87-.6-2.29A2.25,2.25,0,0,0,44.21,39,3.1,3.1,0,0,0,42,42.31c.09,3.26.25,3.53,2.2,3.6A1.71,1.71,0,0,0,45.49,45.41Z"/><path class="cls-2" d="M38.58,60.05a2.54,2.54,0,0,1-1-.81,2.41,2.41,0,0,1-.45-1.34l-5.76,2.86a2.15,2.15,0,0,1-1.9,1.14h-.13a2.15,2.15,0,0,1-1.9-1.14L21.65,57.9a2.41,2.41,0,0,1-.45,1.34,2.54,2.54,0,0,1-1,.81c2,1.52,7.72,6,8.9,9.21.08.09.22.22.33.22h0a.47.47,0,0,0,.28-.22C30.86,66.07,36.57,61.57,38.58,60.05Z"/><path class="cls-2" d="M29.38,41.9,35.77,38a25.63,25.63,0,0,1-6.19.75,26.8,26.8,0,0,1-4.94-.46c-.68-.13-1.31-.28-1.9-.44Z"/><rect class="cls-3" x="28.95" y="38.14" width="0.87" height="31.77" rx="0.44"/><path class="cls-3" d="M30.45,60.33v0a1.33,1.33,0,0,0,.13-.57V44.17a1.24,1.24,0,0,0-.14-.58h0a1.17,1.17,0,0,0-2.13,0h0a1.24,1.24,0,0,0-.14.58V59.74a1.33,1.33,0,0,0,.13.57v0a1.18,1.18,0,0,0,2.15,0Z"/><path class="cls-2" d="M52.93,48.76c.06.11.12.21.17.32l.09.18a3.24,3.24,0,0,1,1.34-.95c-.13-.22-.27-.43-.42-.65A1.92,1.92,0,0,0,52.93,48.76Z"/><path class="cls-2" d="M18.56,56.37l-1-.51a2.45,2.45,0,0,0-.83,2.26A8.12,8.12,0,0,0,18.56,56.37Z"/><path class="cls-2" d="M39.6,57a12,12,0,0,0,1.49,2.69l.76-.7A8.65,8.65,0,0,1,39.6,57Z"/><path class="cls-2" d="M47.21,55.85V43.65A4.52,4.52,0,0,1,46.11,46a2.52,2.52,0,0,1-1.86.77h-.12a3.48,3.48,0,0,1-.47,0l-.23,2.46A19.8,19.8,0,0,1,45,56.7a7.7,7.7,0,0,1,1-.48A6.91,6.91,0,0,1,47.21,55.85Z"/><path class="cls-2" d="M38,57.46a1.65,1.65,0,0,0,.26,1.27,2.37,2.37,0,0,0,1.61.78,16.31,16.31,0,0,1-1.19-2.39Z"/><path class="cls-2" d="M12.89,39.36c-.47.42-.55,1.21-.6,2.29s.15,2.93,1,3.76a1.71,1.71,0,0,0,1.33.5c1.95-.07,2.11-.34,2.2-3.6A3.1,3.1,0,0,0,14.54,39h-.33A1.93,1.93,0,0,0,12.89,39.36Z"/><path class="cls-2" d="M43.24,51.19l-.35,3.61a.44.44,0,0,1-.24.35l-.62.31a3.26,3.26,0,0,1,.91,2.65c.4-.32.81-.61,1.22-.88A19.17,19.17,0,0,0,43.24,51.19Z"/><path class="cls-2" d="M15.09,46.75a3.48,3.48,0,0,1-.47,0H14.5A2.52,2.52,0,0,1,12.64,46a4.52,4.52,0,0,1-1.1-2.37v12.2a6.91,6.91,0,0,1,1.17.37,7.7,7.7,0,0,1,1,.48,19.8,19.8,0,0,1,1.6-7.49Z"/><path class="cls-2" d="M53.59,50.23a8,8,0,0,1,.17,4.65,4.55,4.55,0,0,1,1.43.34,9,9,0,0,0-.26-6.13A2.43,2.43,0,0,0,53.59,50.23Z"/><path class="cls-2" d="M53.49,55.75a10.28,10.28,0,0,1-.48,1l.39.25a8.58,8.58,0,0,1,.7.53,7.05,7.05,0,0,0,.81-1.53A3.45,3.45,0,0,0,53.49,55.75Z"/><path class="cls-2" d="M5.74,56.8a10.28,10.28,0,0,1-.48-1,3.45,3.45,0,0,0-1.42.3,7.05,7.05,0,0,0,.81,1.53,8.58,8.58,0,0,1,.7-.53Z"/><path class="cls-2" d="M42,58.12a2.45,2.45,0,0,0-.83-2.26l-1,.51A8.12,8.12,0,0,0,42,58.12Z"/><path class="cls-3" d="M27.15,44.17a2,2,0,0,1,.1-.64l-12.2-6.38.11,1.14a4,4,0,0,1,2.51,4.05c-.08,2.6-.2,3.83-1.72,4.26l.76,7.87,10.44,5.19Z"/><path class="cls-2" d="M31.08,42.76l12.29-6.42-1.48-1L30.45,42.26A2.36,2.36,0,0,1,31.08,42.76Z"/><path class="cls-2" d="M15.38,36.34l12.29,6.42a2.36,2.36,0,0,1,.63-.5L16.86,35.31Z"/><path class="cls-2" d="M5.82,48.76a1.92,1.92,0,0,0-1.18-1.1c-.15.22-.29.43-.42.65a3.24,3.24,0,0,1,1.34.95l.09-.18C5.7,49,5.76,48.87,5.82,48.76Z"/><path class="cls-3" d="M41.08,42.34a4,4,0,0,1,2.51-4.05l.11-1.14L31.5,43.53a2,2,0,0,1,.1.64V59.66l5.81-2.89h0L42,54.47l.76-7.87C41.28,46.17,41.16,44.94,41.08,42.34Z"/><path class="cls-2" d="M34.57,67.68a54.26,54.26,0,0,1,5.82-7.24c-.27,0-.52,0-.75-.08-1.11.81-8,6-9.16,9.26v0l0,0h0a1.23,1.23,0,0,1-1,.6h0a1.44,1.44,0,0,1-1.07-.62.39.39,0,0,1-.06-.11c-1.15-3.27-8-8.45-9.16-9.26-.23,0-.48.06-.75.08a54.26,54.26,0,0,1,5.82,7.24c2.24.62,4.27,1.65,5,3.33.08.18.15.37.21.55a4.05,4.05,0,0,1,.2-.55C30.3,69.33,32.33,68.3,34.57,67.68Z"/><path class="cls-2" d="M37.47,65.18c-.68.87-1.23,1.64-1.62,2.19a32.36,32.36,0,0,1,4.49-.58A5.36,5.36,0,0,0,37.47,65.18Z"/><path class="cls-2" d="M15.07,73.94a7.82,7.82,0,0,1,3.63-6.25l-1.22-.06a7,7,0,0,0-1.14,11.64c.39,0,.79,0,1.2,0A7.34,7.34,0,0,1,15.07,73.94Z"/><path class="cls-2" d="M52.41,47.91a2.63,2.63,0,0,1,1.12-1c-2.34-2.67-4.61-2.8-5.45-2.74v.57A6.66,6.66,0,0,1,52.41,47.91Z"/><path class="cls-2" d="M23.86,68.49a.32.32,0,0,1-.14,0,26.61,26.61,0,0,0-3.61-.64C17.47,69.36,16,71.59,16,73.94a6.72,6.72,0,0,0,2.7,5.1L19,79c5.2-1.24,8.45-2.91,9.42-4.84a3.12,3.12,0,0,0,0-2.78C27.75,69.93,25.92,69,23.86,68.49ZM19.8,75.93h0a.44.44,0,0,1-.44-.42l-.18-5a.45.45,0,0,1,.43-.45h0a.43.43,0,0,1,.44.42l.17,5A.44.44,0,0,1,19.8,75.93Zm3.55-.2h0a.44.44,0,0,1-.44-.41l-.24-4.95a.44.44,0,0,1,.42-.45.42.42,0,0,1,.45.41l.25,4.94A.44.44,0,0,1,23.35,75.73Zm2.87-.17h0a.43.43,0,0,1-.43-.42l-.24-4.52a.44.44,0,1,1,.87-.05l.24,4.53A.44.44,0,0,1,26.22,75.56Z"/><path class="cls-2" d="M45,73.83a7.07,7.07,0,0,0-3.75-6.2l-1.22.06a7.82,7.82,0,0,1,3.63,6.25,7.34,7.34,0,0,1-2.47,5.28c.41,0,.81,0,1.2,0A7,7,0,0,0,45,73.83Z"/><path class="cls-2" d="M52.91,57.77A6.9,6.9,0,0,0,46.36,57a10.24,10.24,0,0,0-1.53.8h0a20.75,20.75,0,0,0-3.24,2.64,10.68,10.68,0,0,1,7.24,3.17,10.92,10.92,0,0,1,2.69,6.68c2.19-1.19,4.74-3.44,4.74-6.75A7.36,7.36,0,0,0,52.91,57.77Z"/><path class="cls-2" d="M42.8,73.94c0-2.35-1.52-4.58-4.16-6.12a26.61,26.61,0,0,0-3.61.64.32.32,0,0,1-.14,0c-2.06.55-3.89,1.44-4.51,2.87a3.12,3.12,0,0,0,0,2.78c1,1.93,4.22,3.6,9.42,4.84l.31.06A6.72,6.72,0,0,0,42.8,73.94ZM33,75.14a.43.43,0,0,1-.43.42h0a.44.44,0,0,1-.41-.46l.24-4.53a.44.44,0,1,1,.87.05Zm2.87.18a.44.44,0,0,1-.44.41h0a.44.44,0,0,1-.42-.46l.25-4.94a.43.43,0,0,1,.45-.41.44.44,0,0,1,.42.45Zm3.54.19a.44.44,0,0,1-.44.42h0a.44.44,0,0,1-.42-.45l.17-5a.43.43,0,0,1,.44-.42h0a.45.45,0,0,1,.43.45Z"/><path class="cls-2" d="M48.18,64.24c-1.7-1.83-4.19-2.81-7.4-2.94-1,1-1.91,2.11-2.7,3.1a7.23,7.23,0,0,1,3.4,2.34l1.09,0c3.53,0,6.38,1.67,7.57,4.25l.51-.21A10.2,10.2,0,0,0,48.18,64.24Z"/><path class="cls-2" d="M12.86,73.83a7.91,7.91,0,0,1,3.07-6.23c-3.24.08-5.73,1.62-6.65,4a0,0,0,0,0,0,0l0,.07a5.75,5.75,0,0,0-.32,1.39,5.18,5.18,0,0,0,2,4.14,8.15,8.15,0,0,0,4,1.88A7.81,7.81,0,0,1,12.86,73.83Z"/><path class="cls-2" d="M49.51,71.72l0-.07a0,0,0,0,0,0,0c-.92-2.4-3.41-3.94-6.65-4a7.91,7.91,0,0,1,3.07,6.23,7.81,7.81,0,0,1-2.07,5.3,8.15,8.15,0,0,0,4-1.88,5.18,5.18,0,0,0,2-4.14A5.75,5.75,0,0,0,49.51,71.72Z"/><path class="cls-2" d="M12.31,38.71a2.78,2.78,0,0,1,1.95-.6l-.16-1.68h0v-.1h0a.36.36,0,0,1,0-.09v0l0-.07,0,0,.08-.07,2.31-1.6a.44.44,0,0,1,.48,0l1.39.84a1.66,1.66,0,0,0-1.65-1.46H13.21a1.66,1.66,0,0,0-1.67,1.66v4.77A2.53,2.53,0,0,1,12.31,38.71Z"/><path class="cls-2" d="M42.15,34.43,44.46,36l.08.07,0,0,0,.07v0a.36.36,0,0,1,0,.09h0v.1h0l-.16,1.68a2.8,2.8,0,0,1,1.95.6,2.53,2.53,0,0,1,.77,1.52V35.46a1.66,1.66,0,0,0-1.67-1.66H41.93a1.66,1.66,0,0,0-1.65,1.46l1.39-.84A.44.44,0,0,1,42.15,34.43Z"/><path class="cls-2" d="M5,54.88a8,8,0,0,1,.17-4.65,2.4,2.4,0,0,0-1.34-1.14,9,9,0,0,0-.26,6.13A4.55,4.55,0,0,1,5,54.88Z"/><path class="cls-2" d="M6.34,47.91a6.69,6.69,0,0,1,4.33-3.14v-.56c-.84-.06-3.11.07-5.45,2.74A2.63,2.63,0,0,1,6.34,47.91Z"/><path class="cls-2" d="M21.28,65.18a5.36,5.36,0,0,0-2.87,1.61,32.36,32.36,0,0,1,4.49.58C22.51,66.82,22,66.05,21.28,65.18Z"/><path class="cls-2" d="M9.92,63.65a10.68,10.68,0,0,1,7.24-3.17,20.75,20.75,0,0,0-3.24-2.64h0a10.24,10.24,0,0,0-1.53-.8,6.9,6.9,0,0,0-6.55.74,7.36,7.36,0,0,0-3.35,5.81c0,3.31,2.55,5.56,4.74,6.75A10.92,10.92,0,0,1,9.92,63.65Z"/><path class="cls-2" d="M16.18,66.72l1.09,0a7.23,7.23,0,0,1,3.4-2.34c-.79-1-1.71-2.07-2.7-3.1-3.21.13-5.7,1.11-7.4,2.94A10.2,10.2,0,0,0,8.1,70.76l.51.21C9.8,68.39,12.65,66.72,16.18,66.72Z"/><path class="cls-3" d="M19.61,70.05h0a.45.45,0,0,0-.43.45l.18,5a.44.44,0,0,0,.44.42h0a.44.44,0,0,0,.42-.45l-.17-5A.43.43,0,0,0,19.61,70.05Z"/><path class="cls-3" d="M23.07,69.92a.44.44,0,0,0-.42.45l.24,4.95a.44.44,0,0,0,.44.41h0a.44.44,0,0,0,.42-.46l-.25-4.94A.42.42,0,0,0,23.07,69.92Z"/><path class="cls-3" d="M25.93,70.16a.43.43,0,0,0-.41.46l.24,4.52a.43.43,0,0,0,.43.42h0a.44.44,0,0,0,.41-.46l-.24-4.53A.43.43,0,0,0,25.93,70.16Z"/><path class="cls-3" d="M39.15,70.05h0a.43.43,0,0,0-.44.42l-.17,5a.44.44,0,0,0,.42.45h0a.44.44,0,0,0,.44-.42l.18-5A.45.45,0,0,0,39.15,70.05Z"/><path class="cls-3" d="M35.68,69.92a.43.43,0,0,0-.45.41L35,75.27a.44.44,0,0,0,.42.46h0a.44.44,0,0,0,.44-.41l.24-4.95A.44.44,0,0,0,35.68,69.92Z"/><path class="cls-3" d="M32.82,70.16a.43.43,0,0,0-.46.41l-.24,4.53a.44.44,0,0,0,.41.46h0a.43.43,0,0,0,.43-.42l.24-4.52A.43.43,0,0,0,32.82,70.16Z"/><path class="cls-3" d="M5.74,70.12a.44.44,0,0,1-.43-.38,10.31,10.31,0,0,1,.77-5c1-2.41,3.5-5.47,9.51-6.4a.43.43,0,1,1,.13.86c-4.5.7-7.47,2.68-8.83,5.88a9.34,9.34,0,0,0-.71,4.59.45.45,0,0,1-.37.5Z"/><path class="cls-3" d="M53.59,69.65a.43.43,0,0,1-.43-.41C52.91,65,51.05,62,47.65,60.49a12.36,12.36,0,0,0-5.09-1,.44.44,0,0,1-.05-.87,13,13,0,0,1,5.5,1.1c2.56,1.15,5.68,3.72,6,9.5a.44.44,0,0,1-.41.46Z"/><path class="cls-3" d="M56.38,53.81a9,9,0,0,0-1.75-6.9c-2.66-3.38-5.41-3.64-6.55-3.58V35.46a2.54,2.54,0,0,0-2.54-2.54H41.93a2.54,2.54,0,0,0-2.54,2.54v.34l-.32.2a25.29,25.29,0,0,1-19.71-.27v-.27a2.54,2.54,0,0,0-2.54-2.54H13.21a2.54,2.54,0,0,0-2.54,2.54v7.87c-1.14-.06-3.89.2-6.55,3.58a9,9,0,0,0-1.75,6.9A9.57,9.57,0,0,0,4,58.18a7.92,7.92,0,0,0-2.38,5.4c0,4.52,4.15,7.24,6.68,8.2A6.34,6.34,0,0,0,8.05,73a6,6,0,0,0,2.29,4.88,9.25,9.25,0,0,0,6.19,2.25,11.61,11.61,0,0,0,2.64-.32c5.53-1.32,8.89-3.1,10-5.3a3.74,3.74,0,0,0,.22-.51,2.75,2.75,0,0,0,.21.51c1.1,2.2,4.46,4,10,5.3a11.61,11.61,0,0,0,2.64.32,9.3,9.3,0,0,0,6.19-2.25A6,6,0,0,0,50.7,73a6.34,6.34,0,0,0-.25-1.24c2.53-1,6.68-3.68,6.68-8.2a7.92,7.92,0,0,0-2.38-5.4A9.57,9.57,0,0,0,56.38,53.81Zm-3,3.24L53,56.8a10.28,10.28,0,0,0,.48-1,3.45,3.45,0,0,1,1.42.3,7.05,7.05,0,0,1-.81,1.53A8.58,8.58,0,0,0,53.4,57.05ZM42.94,58.11A3.26,3.26,0,0,0,42,55.46l.62-.31a.44.44,0,0,0,.24-.35l.35-3.61a19.17,19.17,0,0,1,.92,6C43.75,57.5,43.34,57.79,42.94,58.11ZM29.68,69.26a.47.47,0,0,1-.28.22h0c-.11,0-.25-.13-.33-.22-1.18-3.18-6.89-7.69-8.9-9.21a2.54,2.54,0,0,0,1-.81,2.41,2.41,0,0,0,.45-1.34l5.76,2.86a2.15,2.15,0,0,0,1.9,1.14h.13a2.15,2.15,0,0,0,1.9-1.14L37.1,57.9a2.41,2.41,0,0,0,.45,1.34,2.54,2.54,0,0,0,1,.81C36.57,61.57,30.86,66.07,29.68,69.26Zm-17-13a6.91,6.91,0,0,0-1.17-.37V43.65A4.52,4.52,0,0,0,12.64,46a2.52,2.52,0,0,0,1.86.77h.12a3.48,3.48,0,0,0,.47,0l.23,2.46a19.8,19.8,0,0,0-1.6,7.49A7.7,7.7,0,0,0,12.71,56.22ZM4.65,57.58a7.05,7.05,0,0,1-.81-1.53,3.45,3.45,0,0,1,1.42-.3,10.28,10.28,0,0,0,.48,1l-.39.25A8.58,8.58,0,0,0,4.65,57.58Zm-.43-9.27c.13-.22.27-.43.42-.65a1.92,1.92,0,0,1,1.18,1.1c-.06.11-.12.21-.17.32l-.09.18A3.24,3.24,0,0,0,4.22,48.31Zm2.3,8.08a7.39,7.39,0,0,1-.1-6.91c1.52-2.93,3.41-3.65,4.25-3.82v10A7.76,7.76,0,0,0,6.52,56.39ZM28.3,42.26a2.36,2.36,0,0,0-.63.5L15.38,36.34l1.48-1Zm13.59-6.95,1.48,1L31.08,42.76a2.36,2.36,0,0,0-.63-.5ZM42,54.47l-4.63,2.3h0L31.6,59.66V44.17a2,2,0,0,0-.1-.64l12.2-6.38-.11,1.14a4,4,0,0,0-2.51,4.05c.08,2.6.2,3.83,1.72,4.26Zm0,3.65a8.12,8.12,0,0,1-1.85-1.75l1-.51A2.45,2.45,0,0,1,42,58.12ZM16.71,54.47,16,46.6c1.52-.43,1.64-1.66,1.72-4.26a4,4,0,0,0-2.51-4.05l-.11-1.14,12.2,6.38a2,2,0,0,0-.1.64V59.66Zm0,3.65a2.45,2.45,0,0,1,.83-2.26l1,.51A8.12,8.12,0,0,1,16.71,58.12ZM28.3,60.33v0a1.33,1.33,0,0,1-.13-.57V44.17a1.24,1.24,0,0,1,.14-.58h0a1.17,1.17,0,0,1,2.13,0h0a1.24,1.24,0,0,1,.14.58V59.74a1.33,1.33,0,0,1-.13.57v0a1.18,1.18,0,0,1-2.15,0ZM42,42.31A3.1,3.1,0,0,1,44.21,39a2.25,2.25,0,0,1,1.65.36c.47.42.55,1.21.6,2.29s-.15,2.93-1,3.76a1.71,1.71,0,0,1-1.33.5C42.21,45.84,42.05,45.57,42,42.31ZM14.54,39a3.1,3.1,0,0,1,2.25,3.31c-.09,3.26-.25,3.53-2.2,3.6a1.71,1.71,0,0,1-1.33-.5c-.82-.83-1-2.55-1-3.76s.13-1.87.6-2.29A1.93,1.93,0,0,1,14.21,39Zm.05,18.23a19.22,19.22,0,0,1,.92-6l.35,3.61a.44.44,0,0,0,.24.35l.62.31a3.26,3.26,0,0,0-.91,2.65C15.41,57.79,15,57.5,14.59,57.23ZM19.15,57a12,12,0,0,1-1.49,2.69L16.9,59A8.48,8.48,0,0,0,19.15,57Zm.92.08.68.34a1.65,1.65,0,0,1-.26,1.27,2.37,2.37,0,0,1-1.61.78A15.35,15.35,0,0,0,20.07,57.12Zm18.19,1.61A1.65,1.65,0,0,1,38,57.46l.68-.34a16.31,16.31,0,0,0,1.19,2.39A2.37,2.37,0,0,1,38.26,58.73Zm2.83,1A12,12,0,0,1,39.6,57a8.65,8.65,0,0,0,2.25,2Zm3.94-3a19.8,19.8,0,0,0-1.6-7.49l.23-2.46a3.48,3.48,0,0,0,.47,0h.12A2.52,2.52,0,0,0,46.11,46a4.52,4.52,0,0,0,1.1-2.37v12.2a6.91,6.91,0,0,0-1.17.37A7.7,7.7,0,0,0,45,56.7Zm3-11c.84.18,2.74.9,4.25,3.82a7.2,7.2,0,0,1,.45,5.65.58.58,0,0,0-.05.14,7,7,0,0,1-.5,1.12,7.76,7.76,0,0,0-4.15-.69Zm6,2c.15.22.29.43.42.65a3.24,3.24,0,0,0-1.34.95l-.09-.18c-.05-.11-.11-.21-.17-.32A1.92,1.92,0,0,1,54.11,47.66Zm1.08,7.56a4.55,4.55,0,0,0-1.43-.34,8,8,0,0,0-.17-4.65,2.43,2.43,0,0,1,1.34-1.14A9,9,0,0,1,55.19,55.22ZM53.53,47a2.63,2.63,0,0,0-1.12,1,6.66,6.66,0,0,0-4.33-3.13v-.57C48.92,44.15,51.19,44.28,53.53,47ZM41.93,33.8h3.61a1.66,1.66,0,0,1,1.67,1.66v4.77a2.53,2.53,0,0,0-.77-1.52,2.8,2.8,0,0,0-1.95-.6l.16-1.68h0v-.1h0a.36.36,0,0,0,0-.09v0l0-.07,0,0L44.46,36l-2.31-1.6a.44.44,0,0,0-.48,0l-1.39.84A1.66,1.66,0,0,1,41.93,33.8Zm-12.35,5A25.63,25.63,0,0,0,35.77,38L29.38,41.9l-6.64-4c.59.16,1.22.31,1.9.44A26.8,26.8,0,0,0,29.58,38.76Zm-16.37-5h3.61a1.66,1.66,0,0,1,1.65,1.46l-1.39-.84a.44.44,0,0,0-.48,0L14.29,36l-.08.07,0,0,0,.07v0a.36.36,0,0,0,0,.09h0v.1h0l.16,1.68a2.78,2.78,0,0,0-1.95.6,2.53,2.53,0,0,0-.77,1.52V35.46A1.66,1.66,0,0,1,13.21,33.8ZM10.67,44.21v.56a6.69,6.69,0,0,0-4.33,3.14,2.63,2.63,0,0,0-1.12-1C7.56,44.28,9.83,44.15,10.67,44.21ZM3.82,49.09a2.4,2.4,0,0,1,1.34,1.14A8,8,0,0,0,5,54.88a4.55,4.55,0,0,0-1.43.34A9,9,0,0,1,3.82,49.09ZM2.49,63.58a7.36,7.36,0,0,1,3.35-5.81A6.9,6.9,0,0,1,12.39,57a10.24,10.24,0,0,1,1.53.8h0a20.75,20.75,0,0,1,3.24,2.64,10.68,10.68,0,0,0-7.24,3.17,10.92,10.92,0,0,0-2.69,6.68C5,69.14,2.49,66.89,2.49,63.58ZM8.1,70.76a10.2,10.2,0,0,1,2.47-6.52c1.7-1.83,4.19-2.81,7.4-2.94,1,1,1.91,2.11,2.7,3.1a7.23,7.23,0,0,0-3.4,2.34l-1.09,0c-3.53,0-6.38,1.67-7.57,4.25Zm10.31-4a5.36,5.36,0,0,1,2.87-1.61c.68.87,1.23,1.64,1.62,2.19A32.36,32.36,0,0,0,18.41,66.79ZM8.92,73.11a5.75,5.75,0,0,1,.32-1.39l0-.07a0,0,0,0,1,0,0c.92-2.4,3.41-3.94,6.65-4a7.91,7.91,0,0,0-3.07,6.23,7.81,7.81,0,0,0,2.07,5.3,8.15,8.15,0,0,1-4-1.88A5.18,5.18,0,0,1,8.92,73.11Zm7.42,6.16a7,7,0,0,1,1.14-11.64l1.22.06a7.82,7.82,0,0,0-3.63,6.25,7.34,7.34,0,0,0,2.47,5.28C17.13,79.26,16.73,79.27,16.34,79.27Zm12-5.13c-1,1.93-4.22,3.6-9.42,4.84l-.31.06a6.72,6.72,0,0,1-2.7-5.1c0-2.35,1.52-4.58,4.16-6.12a26.61,26.61,0,0,1,3.61.64.32.32,0,0,0,.14,0c2.06.55,3.89,1.44,4.51,2.87A3.12,3.12,0,0,1,28.38,74.14ZM29.58,71a4.05,4.05,0,0,0-.2.55c-.06-.18-.13-.37-.21-.55-.72-1.68-2.75-2.71-5-3.33a54.26,54.26,0,0,0-5.82-7.24c.27,0,.52,0,.75-.08,1.11.81,8,6,9.16,9.26a.39.39,0,0,0,.06.11,1.44,1.44,0,0,0,1.07.62h0a1.23,1.23,0,0,0,1-.6h0l0,0v0c1.15-3.27,8.05-8.45,9.16-9.26.23,0,.48.06.75.08a54.26,54.26,0,0,0-5.82,7.24C32.33,68.3,30.3,69.33,29.58,71Zm6.27-3.64c.39-.55.94-1.32,1.62-2.19a5.36,5.36,0,0,1,2.87,1.61A32.36,32.36,0,0,0,35.85,67.37Zm-5.48,6.77a3.12,3.12,0,0,1,0-2.78c.62-1.43,2.45-2.32,4.51-2.87a.32.32,0,0,0,.14,0,26.61,26.61,0,0,1,3.61-.64c2.64,1.54,4.16,3.77,4.16,6.12A6.72,6.72,0,0,1,40.1,79L39.79,79C34.59,77.74,31.34,76.07,30.37,74.14Zm10.84,5.08a7.34,7.34,0,0,0,2.47-5.28,7.82,7.82,0,0,0-3.63-6.25l1.22-.06a7,7,0,0,1,1.14,11.64C42,79.27,41.62,79.26,41.21,79.22Zm6.62-2a8.15,8.15,0,0,1-4,1.88,7.81,7.81,0,0,0,2.07-5.3,7.91,7.91,0,0,0-3.07-6.23c3.24.08,5.73,1.62,6.65,4a0,0,0,0,1,0,0l0,.07a5.75,5.75,0,0,1,.32,1.39A5.18,5.18,0,0,1,47.83,77.25ZM42.57,66.72l-1.09,0a7.23,7.23,0,0,0-3.4-2.34c.79-1,1.71-2.07,2.7-3.1,3.21.13,5.7,1.11,7.4,2.94a10.2,10.2,0,0,1,2.47,6.52l-.51.21C49,68.39,46.1,66.72,42.57,66.72Zm9,3.61a10.92,10.92,0,0,0-2.69-6.68,10.68,10.68,0,0,0-7.24-3.17,20.75,20.75,0,0,1,3.24-2.64h0a10.24,10.24,0,0,1,1.53-.8,6.9,6.9,0,0,1,6.55.74,7.36,7.36,0,0,1,3.35,5.81C56.26,66.89,53.71,69.14,51.52,70.33Z"/><path class="cls-2" d="M9,18.45c0-2.36-.84-3.82-1.44-3.82s-1.44,1.46-1.44,3.82S7,22.26,7.55,22.26,9,20.81,9,18.45Z"/><path class="cls-2" d="M15.55,16.73A16,16,0,0,1,29.62,8.21,15.51,15.51,0,0,1,44.23,18.37a11.62,11.62,0,0,1,2-6.89,18.33,18.33,0,0,0-33-.54A9.48,9.48,0,0,1,15.55,16.73Z"/><path class="cls-4" d="M44.25,23.49A14.53,14.53,0,0,0,29.62,9.08a15,15,0,0,0-14,9.62,14.34,14.34,0,0,1-.81,4.68.37.37,0,0,1,0,.11,14.71,14.71,0,0,0,29.41,0Z"/><path class="cls-3" d="M50,18.45c0-2.15.65-3.88,1.59-4.47a7.32,7.32,0,0,0-1-2C49,13.21,48,15.74,48,18.48s1,5.27,2.56,6.47a7.33,7.33,0,0,0,1.06-2C50.66,22.35,50,20.62,50,18.45Z"/><path class="cls-3" d="M9.32,12a7.05,7.05,0,0,0-1,2c.94.59,1.59,2.32,1.59,4.47s-.66,3.9-1.61,4.48a7.07,7.07,0,0,0,1.06,2c1.56-1.2,2.56-3.7,2.56-6.47S10.86,13.21,9.32,12Z"/><path class="cls-2" d="M14.76,18.48c0-4.1-1.65-7.56-3.6-7.56a2,2,0,0,0-1.22.47c1.72,1.39,2.81,4.09,2.81,7.09s-1.09,5.71-2.81,7.09a2,2,0,0,0,1.22.48C13.11,26.05,14.76,22.58,14.76,18.48Z"/><path class="cls-2" d="M52.32,14.63c-.61,0-1.45,1.46-1.45,3.82s.84,3.81,1.45,3.81,1.44-1.45,1.44-3.81S52.92,14.63,52.32,14.63Z"/><path class="cls-2" d="M47.11,18.48c0-3,1.09-5.7,2.82-7.09a2,2,0,0,0-1.22-.47c-2,0-3.61,3.46-3.61,7.56s1.65,7.57,3.61,7.57a2,2,0,0,0,1.22-.48C48.21,24.19,47.11,21.46,47.11,18.48Z"/><path class="cls-2" d="M14,25a4.37,4.37,0,0,1-1.62,1.61,18.7,18.7,0,0,0,8.3,9.46A15.24,15.24,0,0,1,14,25Z"/><path class="cls-2" d="M45.12,23.6A15.18,15.18,0,0,1,38.58,36a18.67,18.67,0,0,0,8.26-9.77A6.55,6.55,0,0,1,45.12,23.6Z"/><path class="cls-3" d="M52.44,13.77A7.46,7.46,0,0,0,51,11.17l0-.06A3.08,3.08,0,0,0,48.71,10a2.93,2.93,0,0,0-1.89.76A19.41,19.41,0,0,0,29.55,0,19.2,19.2,0,0,0,12.49,10.41,2.67,2.67,0,0,0,11.16,10,3.07,3.07,0,0,0,9,11.11l0,.06a7.3,7.3,0,0,0-1.47,2.6c-1.26.12-2.2,2.09-2.2,4.68S6.16,23,7.4,23.13c.82,2.38,2.22,3.79,3.76,3.79a2.09,2.09,0,0,0,.43,0,19.57,19.57,0,0,0,6.89,8.82,19,19,0,0,0,4.64,2.43.37.37,0,0,0,0,.55,6.91,6.91,0,0,0,3.11,1.57c.28.71,1.17,1.11,1.85,1.42a2.63,2.63,0,0,0,2.67.07c.76-.41,1.58-.76,2.32-1.21a11.89,11.89,0,0,0,2-1.79.47.47,0,0,0,.15-.38,19.47,19.47,0,0,0,12.36-11.7,2.59,2.59,0,0,0,1.12.26c1.54,0,2.93-1.41,3.75-3.79,1.25-.14,2.18-2.11,2.18-4.68S53.7,13.89,52.44,13.77ZM29.55.87A18.54,18.54,0,0,1,46.18,11.48a11.62,11.62,0,0,0-2,6.89A15.51,15.51,0,0,0,29.62,8.21a16,16,0,0,0-14.07,8.52,9.48,9.48,0,0,0-2.36-5.79A18.36,18.36,0,0,1,29.55.87Zm.07,37A14.62,14.62,0,0,1,14.84,23.49a.37.37,0,0,0,0-.11,14.34,14.34,0,0,0,.81-4.68,15,15,0,0,1,14-9.62A14.53,14.53,0,0,1,44.25,23.49,14.54,14.54,0,0,1,29.62,37.9ZM7.55,22.26c-.6,0-1.44-1.45-1.44-3.81S7,14.63,7.55,14.63,9,16.09,9,18.45,8.15,22.26,7.55,22.26ZM9.32,25a7.07,7.07,0,0,1-1.06-2c1-.58,1.61-2.31,1.61-4.48S9.22,14.57,8.28,14a7.05,7.05,0,0,1,1-2c1.54,1.19,2.56,3.72,2.56,6.46S10.88,23.75,9.32,25Zm1.84,1.1a2,2,0,0,1-1.22-.48c1.72-1.38,2.81-4.11,2.81-7.09s-1.09-5.7-2.81-7.09a2,2,0,0,1,1.22-.47c1.95,0,3.6,3.46,3.6,7.56S13.11,26.05,11.16,26.05Zm1.26.54A4.37,4.37,0,0,0,14,25a15.24,15.24,0,0,0,6.68,11.07A18.7,18.7,0,0,1,12.42,26.59ZM38.58,36A15.18,15.18,0,0,0,45.12,23.6a6.55,6.55,0,0,0,1.72,2.58A18.67,18.67,0,0,1,38.58,36Zm10.13-9.9c-2,0-3.61-3.47-3.61-7.57s1.65-7.56,3.61-7.56a2,2,0,0,1,1.22.47c-1.73,1.39-2.82,4.09-2.82,7.09s1.1,5.71,2.82,7.09A2,2,0,0,1,48.71,26.05ZM50.55,25C49,23.75,48,21.25,48,18.48s1-5.27,2.56-6.46a7.32,7.32,0,0,1,1,2c-.94.59-1.59,2.32-1.59,4.47s.66,3.9,1.61,4.48A7.33,7.33,0,0,1,50.55,25Zm1.77-2.69c-.61,0-1.45-1.45-1.45-3.81s.84-3.82,1.45-3.82,1.44,1.46,1.44,3.82S52.92,22.26,52.32,22.26Z"/><path class="cls-2" d="M29.23,12.16s5.38-.54,5.73,2.17-2.62,7.08-5,7.17S24.38,19.31,24,15.77,27.91,12.2,29.23,12.16Z"/><path class="cls-2" d="M20.14,16.56s-2,1.79-1.53,8S21.1,31.16,20.66,32s-2.1-1.66-2.93-5.07S18.43,15.55,20.14,16.56Z"/><path class="cls-2" d="M23.81,34.69s2.07,1.49,7.2,1.05,5.6-1.6,6.15-1.28-2.25,3-7.49,3S21.94,34.28,23.81,34.69Z"/><path class="cls-5" d="M37.56,36.49a9.38,9.38,0,0,1,1.49-.21A1.32,1.32,0,0,0,37.56,36.49Z"/><path class="cls-5" d="M17.26,17.7a24.3,24.3,0,0,0-1.14-5.39,16.61,16.61,0,0,1-.76-2.93c-.06-.65.06-1.42-.37-2a.17.17,0,0,0-.2,0,2.31,2.31,0,0,0-.87,2,.6.6,0,0,0-.45.24c-.46.1-.61.61-.64,1a1.18,1.18,0,0,0,0,.46c-.81-.66-2.37-1.22-3.15-.29a.24.24,0,0,0,.17.4,2.37,2.37,0,0,1,1.74.35,4.31,4.31,0,0,1,1,1.48,12.33,12.33,0,0,1,.93,3.78,22.23,22.23,0,0,1,.14,2.23.52.52,0,0,0-.11.1,2.07,2.07,0,0,1-2.17.52,2.71,2.71,0,0,1-1.3-2.18,5,5,0,0,0-1-2.46c-.48-.52-1.2-1.24-2-1.18-.21,0-.43.22-.34.45.2.53.67.87.89,1.4A5,5,0,0,1,8,17.38a5.42,5.42,0,0,0,1,3.51,1.82,1.82,0,0,0-.73.57C7.18,23,8.43,24.31,10,24.91a1.16,1.16,0,0,0-.18.84A1.25,1.25,0,0,0,11,26.85a4.47,4.47,0,0,0,1-.2A1.36,1.36,0,0,0,14.1,27,11.73,11.73,0,0,0,17.26,17.7Zm-3.74-5.85a.84.84,0,0,0,.57,0c.1.56.24,1.12.37,1.68A7.52,7.52,0,0,0,13.52,11.85Z"/><path class="cls-5" d="M17.31,42a4.64,4.64,0,0,0-3.08-3.4,1.22,1.22,0,0,0-1.76.84,1.35,1.35,0,0,0-.33.19.46.46,0,0,0,.09.72c.34.26.76.32,1.11.57A3.16,3.16,0,0,1,14.27,42a5.92,5.92,0,0,1,.39,3.38,1.06,1.06,0,0,0,1.34,1C17.53,45.82,17.54,43.35,17.31,42Z"/><path class="cls-5" d="M15.2,46.81a1,1,0,0,0-1.68-.3,30.66,30.66,0,0,0-1.64-2.81.52.52,0,0,0-1,.26,4.4,4.4,0,0,0,.7,2.48,8.28,8.28,0,0,1,1,3c.09.75.13,1.51.16,2.28a9,9,0,0,0,0,2.48c0,.67,0,1.34,0,2,0,1,1.65,1.29,1.8.25l0-.25h0v-.06a6.14,6.14,0,0,0,0-.86q0-1.47,0-2.94a4,4,0,0,1,.32-1,5.17,5.17,0,0,0,.79-2.08A4.64,4.64,0,0,0,15.2,46.81Z"/><path class="cls-5" d="M55,48.35a7.83,7.83,0,0,0-2.85-3.62,5.78,5.78,0,0,0-2.11-.81,3.72,3.72,0,0,0-.94-.06,1.71,1.71,0,0,0-1,.44.13.13,0,0,0,0,.24,12.59,12.59,0,0,0,1.31.45,5.55,5.55,0,0,1,1.63.73,6.8,6.8,0,0,1,2.33,2.66,10.89,10.89,0,0,1,1,3.67c.12,1.15.37,3-1,3.4a.93.93,0,0,0-.63,1.11,1.75,1.75,0,0,0,.95,1.14A1,1,0,0,0,55,56.42C56.84,54.5,55.93,50.51,55,48.35Z"/><path class="cls-5" d="M56,61.43a22.9,22.9,0,0,0-2.36-3.69.61.61,0,0,0-.74-.24,2.67,2.67,0,0,0-1.28-1.17.24.24,0,0,0-.34.26c.86,4.06-2.31,7.4-4.75,10.27a1,1,0,0,0,.19,1.46,2.63,2.63,0,0,1,1.56,2.92,2.55,2.55,0,0,1-2.11,2.08.86.86,0,0,0-.48.3,2.61,2.61,0,0,0-1.76-.15.93.93,0,0,0-.63.63,6.51,6.51,0,0,1-1.4,3.12,9,9,0,0,0,.59-4.08c-.19-1.77-1.1-4.34-3.08-4.77a6.83,6.83,0,0,0-3.34.42,8,8,0,0,0-3.15,1.61,7.71,7.71,0,0,0-2.6,4.71c0,.21.31.3.39.11a.16.16,0,0,1,0-.07,2.26,2.26,0,0,0,1.34,1.26c.8.4,1.63.73,2.45,1.08,1.67.72,3.37,1.36,5.09,1.94a1.24,1.24,0,0,0,1.25-.34,1.1,1.1,0,0,0,1.62.74,4.87,4.87,0,0,0,1.24-1,1,1,0,0,0,1.33.43,3.66,3.66,0,0,0,.74-.6,1,1,0,0,0,1.45,0,11.06,11.06,0,0,0,2.42-3.58,3.86,3.86,0,0,0,.71-2A1.07,1.07,0,0,0,49.85,72a3.58,3.58,0,0,0,.09-.45.34.34,0,0,1,0-.1,1,1,0,0,0,.86-.1c2.38-1.44,4.77-3.27,5.5-6.08A6,6,0,0,0,56,61.43ZM45.11,75.29c0-.11,0-.22,0-.32a.33.33,0,0,1,.1,0Z"/><path class="cls-5" d="M53.6,14.81a2.4,2.4,0,0,0-1.5-1,1.29,1.29,0,0,0,.1-.51,1.77,1.77,0,0,0-1.78-1.79,2.63,2.63,0,0,0-.39.06,2.27,2.27,0,0,0-.3-.92,1.16,1.16,0,0,0-1.55-.41c-1.43.77-2.24,2.44-2.78,4.08a7.93,7.93,0,0,1,.56-2A2.24,2.24,0,0,0,46.05,10c-.56-.92-1.25-1.79-1.86-2.68a1.21,1.21,0,0,0-1.11-.55A15.43,15.43,0,0,0,40.69,4.5,31.29,31.29,0,0,0,34.23.81,1.53,1.53,0,0,0,33,.78,1,1,0,0,0,33,.55a.58.58,0,0,0-1.12.31,3,3,0,0,1-.54,2.89,8.55,8.55,0,0,0-1.57,1.83,2.61,2.61,0,0,0,.64,3,.24.24,0,0,0,.07.32,25.74,25.74,0,0,1,3.09,2.19,15.65,15.65,0,0,1,2.5,2.83,15.76,15.76,0,0,1,2.43,7.64,23.8,23.8,0,0,1-.85,8.64A18.48,18.48,0,0,1,35.92,34c-.32.56-.68,1.1-1,1.66a4,4,0,0,1-1.71,1.49.55.55,0,0,0-.25.57H32.7l.22.19.43-.1c1.12-.3,2.2-.75,3.31-1.08l-.1,0a.41.41,0,0,0,.11-.07,6,6,0,0,0,1.12-1l.19,0a.61.61,0,0,0,.56.48,3.48,3.48,0,0,0,1.93-.68l-.23.24A9.69,9.69,0,0,1,38,37.5.89.89,0,0,0,38,39c.66.47.54,1.63.52,2.33a28.29,28.29,0,0,1-.23,2.91,33.56,33.56,0,0,1-1.37,6c-1.08,3.33-2.37,7.07-5.26,9.26a.33.33,0,0,0-.05.5.72.72,0,0,0-.2.09,8.37,8.37,0,0,0,0-1.42c0-.79,0-1.59,0-2.38A46.44,46.44,0,0,0,31.12,51a37.32,37.32,0,0,0-.6-4,.83.83,0,0,0,.35,0,.75.75,0,0,0,.55-.72A3.47,3.47,0,0,0,31,45v0c-.2-.86-.26-2.11-1.4-2.24a1.35,1.35,0,0,0-.84.22.73.73,0,0,0-.3.25,1.7,1.7,0,0,0-.47.77.35.35,0,0,0,.06.28h0c-.33,0-.6.56-.19.73,1.47.63,1.47,2.1,1.52,3.51s.12,2.83.12,4.24,0,2.83,0,4.25c0,.68,0,1.36-.08,2s-.19,1.24.27,1.78a2.9,2.9,0,0,1-.91-.23A18.84,18.84,0,0,1,27,59.65a1.09,1.09,0,0,0,.32-.75,41.14,41.14,0,0,0-.22-4.3,1,1,0,0,0,.36-.81c-.05-1.55-.09-3.11-.14-4.66l-.06-2.25a6.87,6.87,0,0,1,.08-2.22,1.06,1.06,0,0,0-.48-1.17l-.35-.24.32.09c1.57.37,2.24-2.1.66-2.42C25.42,40.5,24,39.27,22.29,38a.69.69,0,0,0-.51-.13c-.27-.58-.66-1.09-1.25-1.12a.11.11,0,0,0-.1.08c-.21.72.23,1.61.16,2.37a.69.69,0,0,0,.22.55l-.34-.2c-1-.63-2-1.35-3.07-2a2.48,2.48,0,0,0-1.89-.45l-.57-.37a.24.24,0,0,0-.26,0l0-.16a1.16,1.16,0,0,0,.35-.21A15.19,15.19,0,0,0,16.23,35a.68.68,0,1,0,.06-1.33l-.09,0c-1.2-.51-2.64-.16-3.89,0a1.17,1.17,0,0,0-1,1.11l-.05,0a.34.34,0,0,0-.15.37c.16.51.63.72,1,1.11A5,5,0,0,1,13,37.81a1,1,0,0,0,1.72.24.71.71,0,0,0,.92.48c.92,1.24,1.87,2.46,2.72,3.75a31.61,31.61,0,0,1,3,5.78A31.47,31.47,0,0,1,23,54.3a22.73,22.73,0,0,1,.27,3.08,1.64,1.64,0,0,0,.05.41c-.85-.39-1.7-.76-2.55-1.12A39,39,0,0,0,16.66,55c-.45-.14-.88.5-.48.83a38.56,38.56,0,0,0,4.48,3l0,0c-.36.44-.69.86-1.37.84a1,1,0,0,0-1,.78,1.31,1.31,0,0,0-.88,0,1.23,1.23,0,0,0-.4.19c-.47-.41-.95-.8-1.44-1.18C13.1,57.43,10,56.1,6.84,56.55a.72.72,0,0,0-.67.87q-.39,0-.78,0c.46-.78,0-2-.2-2.81a8.64,8.64,0,0,1,0-3.82,8.87,8.87,0,0,1,1.54-3.36A5.54,5.54,0,0,1,10,45.15a.88.88,0,0,0,.82-.62.69.69,0,0,0-.09-.65.86.86,0,0,0-1-.39,9.77,9.77,0,0,0-6.08,10,15.34,15.34,0,0,0,.46,2.24,6.37,6.37,0,0,0,.47,1.85.5.5,0,0,0,.12.9c3,.6,6.34,1.86,8.15,4.49a12.14,12.14,0,0,1,1.08,2c.36.77.49,1.61,1.31,2a3.56,3.56,0,0,0,1.21.36A12.92,12.92,0,0,0,8.72,71a1.08,1.08,0,0,0,0,1.52,2.84,2.84,0,0,0-.47.37.49.49,0,0,0,.21.81,27.49,27.49,0,0,0,2.87.06,10,10,0,0,1,3.06.67,1,1,0,0,0,1.31-1c0-1.65,1.13-3,2.23-4.08l1.12-.66a.88.88,0,0,0,.4-1.07c.58.06,1.15.1,1.72.11l.11.11A1.11,1.11,0,0,0,23,67.66,9.17,9.17,0,0,0,26,68.93,5.16,5.16,0,0,1,28.81,71a.68.68,0,0,0,.7.27A.44.44,0,0,0,30.2,71q0-.36.06-.75h0a1.8,1.8,0,0,0,1.41-1.1c.57-.18,1.13-.41,1.7-.54a3,3,0,0,0,2-1.54,1.08,1.08,0,0,0,1.77.65,12.49,12.49,0,0,0,2-2.62c.64-1,1.36-1.85,2-2.76a22.66,22.66,0,0,1,2.29-2.6,20.29,20.29,0,0,0,2.2-2.44.11.11,0,0,0,0-.14.92.92,0,0,0,.71-.88c0-2.4-.12-4.85.1-7.24.18-1.86,2.47-3.55.89-5.41a.51.51,0,0,0-.7,0,8.24,8.24,0,0,0,.09-2.18,3.24,3.24,0,0,0-2-2.8c-.56-.23-1,.25-1,.74a.9.9,0,0,0-.63-.15.49.49,0,0,0-.34.83,5,5,0,0,1,.79,2.73,14.8,14.8,0,0,0,.17,2.92.89.89,0,0,0,.56.53,1.36,1.36,0,0,0-.73.21A1.45,1.45,0,0,0,43,47l0-.14c-.19-.81-.93-1-1.3-1.59a5,5,0,0,1-.22-2.54c0-.81.09-1.62.19-2.43a5.59,5.59,0,0,1,1.66-1.73.66.66,0,0,0,.17-.9,1.09,1.09,0,0,0,.79-.57,2.45,2.45,0,0,0,0,.38,1.72,1.72,0,0,0,1.56,1.46.73.73,0,0,0,.71-.72c0-.74-.13-1.48-.16-2.23s.18-1.26.12-1.85c0-.12-.11-.26-.25-.25a1.27,1.27,0,0,0-.28.06,1,1,0,0,0-1.32-.38,4.61,4.61,0,0,1-1.74.06.91.91,0,0,0-.85,1.2h-.06a1.37,1.37,0,0,0-.92.13c.27-.22.51-.44.74-.65a20.8,20.8,0,0,0,2.79-3.07,14.36,14.36,0,0,0,2-3.66,6.25,6.25,0,0,0,.29-1.15,6.91,6.91,0,0,0,2.3-.31.93.93,0,0,0,.22-1.68l-.13-.26c0-.68-1-1.21-1.46-.61a1.31,1.31,0,0,1-1.42.52c-.49-.15-.78-.55-1.2-.78a.3.3,0,0,0-.29,0,7.56,7.56,0,0,0-.44-2.65,3.49,3.49,0,0,0-.84-1.38A13.29,13.29,0,0,0,43.11,17l.14.27a4.68,4.68,0,0,0,.48,1,.55.55,0,0,0,.59.34,1.85,1.85,0,0,0,.9.55,2.43,2.43,0,0,0,1.8-.3c.38-.19.59-.4,1-.21.23.1.39.33.63.43a1.39,1.39,0,0,0,1.49-.28c.24-.22.67-1.62.88-1.62.57,0,1.14,1.61,1.27,2a7.66,7.66,0,0,1,.3,2.24.75.75,0,0,0,1.47.2C54.62,19.42,54.88,16.85,53.6,14.81ZM33.81,9.45l-.56-.28c.25,0,.5,0,.74.07A.26.26,0,0,0,33.81,9.45ZM21.15,40a.69.69,0,0,0,.24,0,1.15,1.15,0,0,0,.32,0c.19.23.39.45.59.65ZM19.43,62l.17.13a3.7,3.7,0,0,0,.28,1.06l-.22-.22A9.18,9.18,0,0,0,19.43,62Zm9.69,4.36c-.07.76-.05,1.55-.08,2.32v.12a21.43,21.43,0,0,0-1-1.89,9.94,9.94,0,0,0-2.94-2.65c-1.33-1-2.32-2.3-3.55-3.34a2.59,2.59,0,0,0,.31-.35,2.56,2.56,0,0,0,.42-.78c1.06.63,2.12,1.26,3.2,1.86,1.4.77,2.94,1.76,4.6,1.65A9.13,9.13,0,0,0,29.12,66.31Zm1.49,1.86-.12.12c0-.14.05-.28.09-.42a.82.82,0,0,0,.35,0ZM32.48,60l-.17-.07a3.25,3.25,0,0,0,.4-.15Zm2.05-1.52a8.7,8.7,0,0,0,.69-.81.86.86,0,0,0,.55.3A8.49,8.49,0,0,0,34.53,58.46Zm3-1-.89.21,1-.46A1.06,1.06,0,0,0,37.53,57.49Zm7.62-11.64c0-.05,0-.1.05-.15a.63.63,0,0,0,.46-.12,2.55,2.55,0,0,0,.74-1.1,7.24,7.24,0,0,1-1.25,2,1.47,1.47,0,0,0-.54-.28A.65.65,0,0,0,45.15,45.85Zm-.75,11,.09-.47,0,.11a.83.83,0,0,0,.71.66,8,8,0,0,0-1.07.47A5,5,0,0,0,44.4,56.87ZM40,38.35a1,1,0,0,0,.4.18,1.8,1.8,0,0,0-.18.2h0a.53.53,0,0,0-.24.27,4.25,4.25,0,0,0-.21-.49A1.88,1.88,0,0,0,40,38.35Zm3,11.19c.11.56.22,1.11.34,1.67a.61.61,0,0,0-.4,0C42.94,50.66,43,50.1,43,49.54Zm-1.11,5.39a2.06,2.06,0,0,0,.43-.4c0,.4-.08.79-.16,1.18a5.27,5.27,0,0,1-.11.58L41.46,56a1,1,0,0,0-1.11.14,1.07,1.07,0,0,0-.23.4.93.93,0,0,0,.42,1,4.86,4.86,0,0,0,2.26,1l-.07,0-.46.38a.51.51,0,0,0-.63-.52,1.09,1.09,0,0,0-.49.28s-.09.12-.13.13l-.06,0a3.15,3.15,0,0,1-1-1.06c0-.06-.15,0-.14,0a3.52,3.52,0,0,0,.68,1.7.67.67,0,0,0,.75.28l-.9.8a.64.64,0,0,0-.35-.69,2.6,2.6,0,0,0-.36-.13,1,1,0,0,0,.19-1.29,5.45,5.45,0,0,1-.45-.78c0-.09-.06-.19-.1-.28a1,1,0,0,0-.69-.63A20.23,20.23,0,0,0,41.86,54.93Zm2.88-29.26a.9.9,0,0,0,.14.2l-.12.27c0,.1-.11.21-.16.32C44.65,26.2,44.7,25.94,44.74,25.67Zm3.73-10.54a4.26,4.26,0,0,0-.62,0c0-.09,0-.18.08-.27l.09.06a1.78,1.78,0,0,0,.51.16Z"/><path class="cls-5" d="M28.53,70.79c-1.46-2-4.38-2.19-6.63-2A5.2,5.2,0,0,0,17,72.51c-.78,2.54.29,5.25,1.73,7.34.19.27.73.11.58-.25l0-.12h.06a9,9,0,0,0,3.76-1.21c1.22-.56,2.5-1,3.66-1.73C28.72,75.37,30.1,72.9,28.53,70.79Z"/></g></g></svg>