<svg xmlns="http://www.w3.org/2000/svg" xmlns:xlink="http://www.w3.org/1999/xlink" viewBox="0 0 116.95 31.27"><defs><style>.cls-1{fill:none;}.cls-2{clip-path:url(#clip-path);}.cls-3{opacity:0.17;}.cls-4{clip-path:url(#clip-path-4);}.cls-5{fill:#001446;}.cls-17,.cls-6{fill:#fff;}.cls-7{fill:#0b1b3c;}.cls-8{opacity:0.3;}.cls-9{clip-path:url(#clip-path-6);}.cls-10{clip-path:url(#clip-path-7);}.cls-11{clip-path:url(#clip-path-8);}.cls-12{clip-path:url(#clip-path-9);}.cls-13{clip-path:url(#clip-path-10);}.cls-14{clip-path:url(#clip-path-11);}.cls-15{clip-path:url(#clip-path-12);}.cls-16{clip-path:url(#clip-path-13);}.cls-17{font-size:21px;font-family:Montserrat-SemiBold, Montserrat;font-weight:600;}.cls-18{letter-spacing:-0.02em;}.cls-19{letter-spacing:-0.01em;}.cls-20{font-size:9px;letter-spacing:0.91em;}.cls-21{letter-spacing:0.93em;}</style><clipPath id="clip-path" transform="translate(-12.63 -7.65)"><rect class="cls-1" width="47" height="47"/></clipPath><clipPath id="clip-path-4" transform="translate(-12.63 -7.65)"><rect class="cls-1" x="12.41" y="32.71" width="22.18" height="6.02"/></clipPath><clipPath id="clip-path-6" transform="translate(-12.63 -7.65)"><polygon class="cls-1" points="26.7 21.81 27.07 21.81 27.07 21.81 26.7 21.81 26.7 21.81"/></clipPath><clipPath id="clip-path-7" transform="translate(-12.63 -7.65)"><rect class="cls-1" x="15.04" y="10.9" width="4.14" height="7.52"/></clipPath><clipPath id="clip-path-8" transform="translate(-12.63 -7.65)"><rect class="cls-1" x="17.3" y="22.56" width="1.88" height="3.01"/></clipPath><clipPath id="clip-path-9" transform="translate(-12.63 -7.65)"><rect class="cls-1" x="16.54" y="24.44" width="1.88" height="5.26"/></clipPath><clipPath id="clip-path-10" transform="translate(-12.63 -7.65)"><rect class="cls-1" x="30.83" y="24.82" width="3.01" height="5.26"/></clipPath><clipPath id="clip-path-11" transform="translate(-12.63 -7.65)"><rect class="cls-1" x="24.06" y="29.33" width="9.78" height="9.02"/></clipPath><clipPath id="clip-path-12" transform="translate(-12.63 -7.65)"><rect class="cls-1" x="13.91" y="8.27" width="19.18" height="27.82"/></clipPath><clipPath id="clip-path-13" transform="translate(-12.63 -7.65)"><rect class="cls-1" x="18.8" y="34.22" width="4.89" height="4.14"/></clipPath></defs><title>logo</title><g id="Calque_2" data-name="Calque 2"><g id="Calque_1-2" data-name="Calque 1"><g class="cls-2"><g class="cls-2"><g class="cls-2"><g class="cls-3"><g class="cls-4"><path class="cls-5" d="M34.72,35.85c0,1.69-4.94,3.07-11,3.07s-11-1.38-11-3.07,4.95-3.08,11-3.08,11,1.38,11,3.08" transform="translate(-12.63 -7.65)"/></g></g></g><g class="cls-2"><path class="cls-6" d="M18.92,29.14,18.69,29a.14.14,0,0,1-.09-.13l-.13-1.36a7.06,7.06,0,0,0-.35,2.27,4.52,4.52,0,0,1,.46.34,1.22,1.22,0,0,1,.34-1" transform="translate(-12.63 -7.65)"/><path class="cls-6" d="M19.84,29.73a3.26,3.26,0,0,1-.85.75l.28.26a4.56,4.56,0,0,0,.57-1" transform="translate(-12.63 -7.65)"/><path class="cls-6" d="M20.34,30.37a.72.72,0,0,0,.1-.48l-.26-.13a5.32,5.32,0,0,1-.45.9.88.88,0,0,0,.61-.29" transform="translate(-12.63 -7.65)"/><path class="cls-6" d="M29.74,25.36a2.07,2.07,0,0,0,.36-1.42c0-.4,0-.7-.22-.86a.85.85,0,0,0-.62-.13,1.14,1.14,0,0,0-.85,1.24c0,1.23.1,1.33.83,1.36a.69.69,0,0,0,.5-.19" transform="translate(-12.63 -7.65)"/><path class="cls-6" d="M27.14,30.86a1,1,0,0,1-.39-.3,1,1,0,0,1-.17-.5l-2.16,1.07a.81.81,0,0,1-.72.43h-.05a.81.81,0,0,1-.71-.43l-2.17-1.07a.86.86,0,0,1-.16.5,1,1,0,0,1-.39.3c.75.57,2.9,2.27,3.34,3.47a.26.26,0,0,0,.13.08h0a.14.14,0,0,0,.1-.08c.45-1.2,2.59-2.9,3.35-3.47" transform="translate(-12.63 -7.65)"/><path class="cls-6" d="M23.68,24l2.4-1.47a9.49,9.49,0,0,1-2.32.29,9.85,9.85,0,0,1-1.86-.18,6.43,6.43,0,0,1-.72-.16Z" transform="translate(-12.63 -7.65)"/><path class="cls-5" d="M23.69,34.57c-.09,0-.17-.07-.38-.16V22.79c.2-.09.28-.16.37-.16s.16.07,0,.16V34.41C23.85,34.5,23.78,34.57,23.69,34.57Z" transform="translate(-12.63 -7.65)"/><path class="cls-5" d="M24.08,31h0a.16.16,0,0,0,0-.21V24.89a.16.16,0,0,0,0-.22h0a.49.49,0,0,0-.4-.26.46.46,0,0,0-.4.26h0a.16.16,0,0,0,0,.22v5.86a.15.15,0,0,0,0,.21h0a.46.46,0,0,0,.4.26.47.47,0,0,0,.4-.26" transform="translate(-12.63 -7.65)"/><path class="cls-6" d="M32.54,26.62l.06.12,0,.07a1.2,1.2,0,0,1,.51-.36c0-.08-.1-.16-.16-.24a.67.67,0,0,0-.44.41" transform="translate(-12.63 -7.65)"/><path class="cls-6" d="M19.61,29.48l-.38-.19a.91.91,0,0,0-.31.85,2.94,2.94,0,0,0,.69-.66" transform="translate(-12.63 -7.65)"/><path class="cls-6" d="M27.52,29.73a4.56,4.56,0,0,0,.57,1l.28-.26a3.26,3.26,0,0,1-.85-.75" transform="translate(-12.63 -7.65)"/><path class="cls-6" d="M30.46,29.33V24.76a1.71,1.71,0,0,1-.42.9.93.93,0,0,1-.7.28h-.22l-.09.92a7.41,7.41,0,0,1,.61,2.82,3.26,3.26,0,0,1,.38-.18,3.22,3.22,0,0,1,.44-.14" transform="translate(-12.63 -7.65)"/><path class="cls-6" d="M26.92,29.89a.62.62,0,0,0,.1.48.88.88,0,0,0,.61.29,5.32,5.32,0,0,1-.45-.9Z" transform="translate(-12.63 -7.65)"/><path class="cls-6" d="M17.48,23.08c-.18.16-.21.46-.23.86a2.07,2.07,0,0,0,.37,1.42.68.68,0,0,0,.5.19c.73,0,.79-.13.83-1.36A1.16,1.16,0,0,0,18.1,23H18a.76.76,0,0,0-.5.14" transform="translate(-12.63 -7.65)"/><path class="cls-6" d="M28.89,27.53l-.13,1.36a.14.14,0,0,1-.09.13l-.23.12a1.22,1.22,0,0,1,.34,1,3.63,3.63,0,0,1,.46-.34,7.35,7.35,0,0,0-.35-2.27" transform="translate(-12.63 -7.65)"/><path class="cls-6" d="M18.25,25.86l-.17,0h0a1,1,0,0,1-.7-.29,1.78,1.78,0,0,1-.41-.89v4.58a3.22,3.22,0,0,1,.44.14l.38.18a7.56,7.56,0,0,1,.6-2.81Z" transform="translate(-12.63 -7.65)"/><path class="cls-6" d="M32.78,27.17a3,3,0,0,1,.07,1.75,1.59,1.59,0,0,1,.54.13,3.38,3.38,0,0,0-.1-2.31.93.93,0,0,0-.51.43" transform="translate(-12.63 -7.65)"/><path class="cls-6" d="M32.74,29.25a2.08,2.08,0,0,1-.18.39l.15.09.27.2a3.23,3.23,0,0,0,.3-.57,1.28,1.28,0,0,0-.54-.11" transform="translate(-12.63 -7.65)"/><path class="cls-6" d="M14.79,29.64c0-.09-.11-.23-.18-.39a1.27,1.27,0,0,0-.53.11,2.29,2.29,0,0,0,.3.57l.27-.2.14-.09" transform="translate(-12.63 -7.65)"/><path class="cls-6" d="M28.44,30.14a.93.93,0,0,0-.31-.85l-.39.19a3,3,0,0,0,.7.66" transform="translate(-12.63 -7.65)"/><path class="cls-5" d="M22.94,24.89a1,1,0,0,1,0-.24l-4.58-2.4,0,.43a1.49,1.49,0,0,1,.94,1.52c0,1-.07,1.45-.64,1.61l.28,3,3.93,1.95Z" transform="translate(-12.63 -7.65)"/><path class="cls-6" d="M24.32,24.36,28.94,22l-.56-.39-4.3,2.62a.84.84,0,0,1,.24.18" transform="translate(-12.63 -7.65)"/><path class="cls-6" d="M18.42,22,23,24.36a.8.8,0,0,1,.23-.18L19,21.56Z" transform="translate(-12.63 -7.65)"/><path class="cls-6" d="M14.82,26.62a.67.67,0,0,0-.44-.41c-.06.08-.11.16-.16.24a1.27,1.27,0,0,1,.51.36l0-.07.06-.12" transform="translate(-12.63 -7.65)"/><path class="cls-5" d="M28,24.2A1.49,1.49,0,0,1,29,22.68l0-.43-4.59,2.4a.67.67,0,0,1,0,.24v5.83l2.18-1.09,1.75-.86.28-3c-.57-.16-.62-.63-.64-1.61" transform="translate(-12.63 -7.65)"/><path class="cls-6" d="M25.63,33.73A20.62,20.62,0,0,1,27.82,31l-.28,0c-.42.31-3,2.25-3.45,3.48h0l0,0h0a.47.47,0,0,1-.38.23.51.51,0,0,1-.4-.24l0,0c-.43-1.23-3-3.17-3.44-3.48l-.28,0a19.41,19.41,0,0,1,2.18,2.72A2.73,2.73,0,0,1,23.6,35a1.8,1.8,0,0,1,.08.21,1.72,1.72,0,0,1,.07-.21,2.78,2.78,0,0,1,1.88-1.25" transform="translate(-12.63 -7.65)"/><path class="cls-6" d="M26.72,32.79c-.25.33-.46.62-.61.83a11.9,11.9,0,0,1,1.69-.22,1.92,1.92,0,0,0-1.08-.61" transform="translate(-12.63 -7.65)"/><path class="cls-6" d="M18.3,36.09a2.91,2.91,0,0,1,1.37-2.35l-.46,0A2.66,2.66,0,0,0,17.8,36a2.61,2.61,0,0,0,1,2.05,3.39,3.39,0,0,0,.45,0,2.76,2.76,0,0,1-.93-2" transform="translate(-12.63 -7.65)"/><path class="cls-6" d="M32.46,26.3a1,1,0,0,1,.42-.36,2.51,2.51,0,0,0-2.05-1v.21a2.48,2.48,0,0,1,1.63,1.18" transform="translate(-12.63 -7.65)"/><path class="cls-6" d="M21.61,34l-.06,0a9.53,9.53,0,0,0-1.35-.23,2.76,2.76,0,0,0-1.57,2.3,2.54,2.54,0,0,0,1,1.92l.11,0c2-.46,3.18-1.09,3.55-1.82a1.15,1.15,0,0,0,0-1A2.41,2.41,0,0,0,21.61,34m-1.68,2.81h.14a.16.16,0,0,1-.16-.16l-.07-1.92a.18.18,0,0,1,.16-.18h0a.16.16,0,0,1,.16.16l.07,1.92a.17.17,0,0,1-.16.18m1.33-.09h0a.17.17,0,0,1-.17-.16l-.09-1.85a.18.18,0,0,1,.16-.18.17.17,0,0,1,.17.16l.09,1.86a.17.17,0,0,1-.16.17m1.08-.07h0a.16.16,0,0,1-.16-.15l-.09-1.7a.17.17,0,0,1,.15-.18.18.18,0,0,1,.18.16l.09,1.7a.17.17,0,0,1-.16.17" transform="translate(-12.63 -7.65)"/><path class="cls-6" d="M29.56,36a2.68,2.68,0,0,0-1.41-2.33l-.46,0a2.91,2.91,0,0,1,1.37,2.35,2.76,2.76,0,0,1-.93,2,3.39,3.39,0,0,0,.45,0,2.64,2.64,0,0,0,1-2.05" transform="translate(-12.63 -7.65)"/><path class="cls-6" d="M32.53,30a2.59,2.59,0,0,0-2.46-.28,3.21,3.21,0,0,0-.58.3h0a8.28,8.28,0,0,0-1.22,1A3.77,3.77,0,0,1,32,34.73a3,3,0,0,0,1.79-2.54A2.76,2.76,0,0,0,32.53,30" transform="translate(-12.63 -7.65)"/><path class="cls-6" d="M28.73,36.09a2.76,2.76,0,0,0-1.57-2.3,9.53,9.53,0,0,0-1.35.23l-.06,0a2.41,2.41,0,0,0-1.69,1.08,1.15,1.15,0,0,0,0,1c.37.73,1.59,1.36,3.54,1.82l.12,0a2.54,2.54,0,0,0,1-1.92m-3.69.6a.17.17,0,0,1-.16.16h0a.18.18,0,0,1-.16-.18L24.8,35a.16.16,0,0,1,.17-.15.16.16,0,0,1,.16.17Zm1.08-.09a.17.17,0,0,1-.17.16h0a.16.16,0,0,1-.15-.17l.09-1.86a.17.17,0,0,1,.17-.16.18.18,0,0,1,.16.18Zm1.33.09a.17.17,0,0,1-.17.16h0a.17.17,0,0,1-.16-.18l.06-1.92a.17.17,0,0,1,.17-.16h0a.18.18,0,0,1,.16.18Z" transform="translate(-12.63 -7.65)"/><path class="cls-6" d="M30.75,32.44A3.86,3.86,0,0,0,28,31.33c-.37.39-.72.8-1,1.17a2.73,2.73,0,0,1,1.28.88h.41A3,3,0,0,1,31.49,35l.19-.08a3.85,3.85,0,0,0-.93-2.45" transform="translate(-12.63 -7.65)"/><path class="cls-6" d="M17.47,36a3,3,0,0,1,1.15-2.34,2.6,2.6,0,0,0-2.5,1.51v0a2.31,2.31,0,0,0-.12.52,1.92,1.92,0,0,0,.75,1.56,3.07,3.07,0,0,0,1.51.71,3,3,0,0,1-.78-2" transform="translate(-12.63 -7.65)"/><path class="cls-6" d="M31.25,35.25v0a2.61,2.61,0,0,0-2.51-1.51A2.95,2.95,0,0,1,29.11,38a3.07,3.07,0,0,0,1.51-.71,2,2,0,0,0,.75-1.56,2.31,2.31,0,0,0-.12-.52" transform="translate(-12.63 -7.65)"/><path class="cls-6" d="M17.26,22.84a1,1,0,0,1,.74-.22L17.94,22h0s0,0,.11,0h0c-.11,0-.11,0-.1,0h0l0,0h0s0,0,0,0l.87-.6a.15.15,0,0,1,.17,0l.53.32a.52.52,0,0,0-.62-.48H17.6a.6.6,0,0,0-.68.56v1.79a1.69,1.69,0,0,1,.34-.57" transform="translate(-12.63 -7.65)"/><path class="cls-6" d="M28.55,21.29l.87.61s0,0,0,0h0l0,0h0a0,0,0,0,1,0,0h0a0,0,0,0,1,0,0h0l-.06.63a1.07,1.07,0,0,1,.74.22,1,1,0,0,1,.29.57V21.68a.63.63,0,0,0-.63-.62H28.47a.63.63,0,0,0-.62.55l.53-.32a.15.15,0,0,1,.17,0" transform="translate(-12.63 -7.65)"/><path class="cls-6" d="M14.51,28.92a3,3,0,0,1,.06-1.75.89.89,0,0,0-.5-.43,3.38,3.38,0,0,0-.1,2.31,1.53,1.53,0,0,1,.54-.13" transform="translate(-12.63 -7.65)"/><path class="cls-6" d="M14.92,26.3a2.49,2.49,0,0,1,1.62-1.18v-.21a2.54,2.54,0,0,0-2,1,1,1,0,0,1,.43.36" transform="translate(-12.63 -7.65)"/><path class="cls-6" d="M20.64,32.79a2,2,0,0,0-1.08.61,11.9,11.9,0,0,1,1.69.22c-.15-.21-.36-.5-.61-.83" transform="translate(-12.63 -7.65)"/><path class="cls-6" d="M16.36,32.22A4.05,4.05,0,0,1,19.08,31a7.73,7.73,0,0,0-1.21-1h0a3.57,3.57,0,0,0-.58-.3,2.59,2.59,0,0,0-2.46.28,2.76,2.76,0,0,0-1.26,2.18,3,3,0,0,0,1.78,2.54,4.11,4.11,0,0,1,1-2.51" transform="translate(-12.63 -7.65)"/><path class="cls-6" d="M18.72,33.37h.41a2.73,2.73,0,0,1,1.28-.88c-.3-.37-.65-.78-1-1.17a3.84,3.84,0,0,0-2.78,1.11,3.79,3.79,0,0,0-.93,2.45l.19.08a3,3,0,0,1,2.85-1.6" transform="translate(-12.63 -7.65)"/><path class="cls-5" d="M19.93,34.59H20a.18.18,0,0,0-.16.18l.07,1.92a.16.16,0,0,0,.16.16h0a.17.17,0,0,0,.16-.18l-.07-1.92a.16.16,0,0,0-.16-.16" transform="translate(-12.63 -7.65)"/><path class="cls-5" d="M21.31,34.66a.17.17,0,0,0-.16.17l.09,1.86a.17.17,0,0,0,.17.16h0a.17.17,0,0,0,.16-.17l-.09-1.86a.17.17,0,0,0-.17-.16" transform="translate(-12.63 -7.65)"/><path class="cls-5" d="M22.38,34.82a.15.15,0,0,0-.15.17l.09,1.7a.16.16,0,0,0,.16.16h0a.18.18,0,0,0,.16-.18L22.56,35a.17.17,0,0,0-.18-.15" transform="translate(-12.63 -7.65)"/><path class="cls-5" d="M27.45,34.59h-.1a.17.17,0,0,0-.17.16l-.06,1.92a.17.17,0,0,0,.16.18h0a.17.17,0,0,0,.17-.16l.07-1.92a.18.18,0,0,0-.16-.18" transform="translate(-12.63 -7.65)"/><path class="cls-5" d="M26.05,34.57a.17.17,0,0,0-.17.16l-.09,1.86a.15.15,0,0,0,.15.17h0a.17.17,0,0,0,.17-.16l.09-1.85a.18.18,0,0,0-.16-.18" transform="translate(-12.63 -7.65)"/><path class="cls-5" d="M25,34.66a.18.18,0,0,0-.17.16l-.09,1.7a.17.17,0,0,0,.16.17h0a.16.16,0,0,0,.16-.15l.09-1.7a.18.18,0,0,0-.16-.18" transform="translate(-12.63 -7.65)"/><path class="cls-5" d="M14.79,34.65a.16.16,0,0,1-.16-.14,3.9,3.9,0,0,1,.29-1.9,4.23,4.23,0,0,1,3.57-2.41.17.17,0,0,1,.06.33,3.93,3.93,0,0,0-3.33,2.21A3.4,3.4,0,0,0,15,34.46a.17.17,0,0,1-.14.19h0" transform="translate(-12.63 -7.65)"/><path class="cls-5" d="M32.78,34.47a.16.16,0,0,1-.16-.15A3.51,3.51,0,0,0,30.55,31a4.7,4.7,0,0,0-1.91-.39.17.17,0,0,1-.18-.15.18.18,0,0,1,.16-.18,4.87,4.87,0,0,1,2.06.42A3.84,3.84,0,0,1,33,34.3a.16.16,0,0,1-.16.17h0" transform="translate(-12.63 -7.65)"/><path class="cls-5" d="M34,28.52a3.44,3.44,0,0,0-.65-2.6,3,3,0,0,0-2.47-1.34V21.63a1,1,0,0,0-.95-.95H28.4a1,1,0,0,0-.95.95v.13l-.12.08a9.52,9.52,0,0,1-7.4-.1v-.11a1,1,0,0,0-1-.95H17.5a1,1,0,0,0-1,.95v2.95a2.94,2.94,0,0,0-2.46,1.34,3.41,3.41,0,0,0-.66,2.6A3.58,3.58,0,0,0,14,30.16a3,3,0,0,0-.9,2c0,1.7,1.56,2.72,2.51,3.09a3.12,3.12,0,0,0-.09.46,2.25,2.25,0,0,0,.86,1.84,3.51,3.51,0,0,0,2.33.84,4.32,4.32,0,0,0,1-.12c2.08-.49,3.34-1.17,3.76-2,0-.07.06-.13.08-.19s.05.12.08.19c.41.82,1.68,1.5,3.76,2a4.19,4.19,0,0,0,1,.12,3.48,3.48,0,0,0,2.32-.84,2.3,2.3,0,0,0,.87-1.84,2.21,2.21,0,0,0-.1-.46c1-.37,2.51-1.39,2.51-3.09a3,3,0,0,0-.89-2,3.7,3.7,0,0,0,.61-1.64m-1,1.21-.15-.09a2.08,2.08,0,0,0,.18-.39,1.28,1.28,0,0,1,.54.11,3.23,3.23,0,0,1-.3.57l-.27-.2m-3.93.41a1.22,1.22,0,0,0-.34-1l.23-.12a.16.16,0,0,0,.09-.13l.13-1.36a7.35,7.35,0,0,1,.35,2.27,3.63,3.63,0,0,0-.46.34m-5,4.19a.14.14,0,0,1-.1.08h0a.26.26,0,0,1-.13-.08c-.44-1.2-2.59-2.9-3.34-3.47a1,1,0,0,0,.39-.3.86.86,0,0,0,.16-.5l2.17,1.07a.81.81,0,0,0,.71.43h.05a.81.81,0,0,0,.72-.43l2.16-1.07a1,1,0,0,0,.17.5,1,1,0,0,0,.39.3c-.75.57-2.9,2.27-3.35,3.47m-6.43-4.84a3.22,3.22,0,0,0-.44-.14V24.76a1.77,1.77,0,0,0,.41.9,1,1,0,0,0,.7.28h.22l.09.92a7.7,7.7,0,0,0-.6,2.82l-.38-.18m-3,.44a2.29,2.29,0,0,1-.3-.57,1.27,1.27,0,0,1,.53-.11c.07.16.13.3.18.39l-.14.09-.27.2m-.16-3.48c0-.08.1-.16.16-.24a.67.67,0,0,1,.44.41l-.06.12,0,.07a1.18,1.18,0,0,0-.5-.36m.76,3a2.76,2.76,0,0,1,0-2.6,2.49,2.49,0,0,1,1.59-1.44v3.78a2.94,2.94,0,0,0-1.56.26m8.29-5.31a.68.68,0,0,0-.23.18L18.42,22l.56-.39Zm5.11-2.62.56.39-4.62,2.41a.84.84,0,0,0-.24-.18Zm0,7.21-1.74.86-2.19,1.09V24.89a.67.67,0,0,0,0-.24L29,22.25l0,.43A1.49,1.49,0,0,0,28,24.2c0,1,.07,1.45.64,1.61Zm.07,1.37a3,3,0,0,1-.7-.66l.39-.19a.93.93,0,0,1,.31.85M19,28.77l-.28-3c.57-.16.61-.63.64-1.61a1.49,1.49,0,0,0-.94-1.52l0-.43L23,24.65a1,1,0,0,0,0,.24v5.83Zm-.09,1.37a.91.91,0,0,1,.31-.85l.38.19a2.94,2.94,0,0,1-.69.66m4.36.83h0a.15.15,0,0,1,0-.21V24.89a.16.16,0,0,1,0-.22h0a.47.47,0,0,1,.4-.26.49.49,0,0,1,.4.26h0a.16.16,0,0,1,0,.22v5.86a.16.16,0,0,1,0,.21h0a.47.47,0,0,1-.4.26.46.46,0,0,1-.4-.26m5.13-6.78A1.14,1.14,0,0,1,29.26,23a.85.85,0,0,1,.62.13c.18.16.2.46.22.86a2.07,2.07,0,0,1-.36,1.42.69.69,0,0,1-.5.19c-.73,0-.8-.13-.83-1.36M18.1,23A1.16,1.16,0,0,1,19,24.19c0,1.23-.1,1.33-.83,1.36a.68.68,0,0,1-.5-.19,2.07,2.07,0,0,1-.37-1.42c0-.4.05-.7.23-.86a.76.76,0,0,1,.5-.14h.12m0,6.85a7.06,7.06,0,0,1,.35-2.27l.13,1.36a.14.14,0,0,0,.09.13l.23.12a1.22,1.22,0,0,0-.34,1,4.52,4.52,0,0,0-.46-.34m1.72-.07a4.56,4.56,0,0,1-.57,1L19,30.48a3.26,3.26,0,0,0,.85-.75m.34,0,.26.13a.72.72,0,0,1-.1.48.88.88,0,0,1-.61.29,5.32,5.32,0,0,0,.45-.9m6.84.61a.62.62,0,0,1-.1-.48l.26-.13a5.32,5.32,0,0,0,.45.9.88.88,0,0,1-.61-.29m1.07.37a4.56,4.56,0,0,1-.57-1,3.26,3.26,0,0,0,.85.75l-.28.26m1.55-1.14A7.28,7.28,0,0,0,29,26.79l.09-.93.18,0h0a1,1,0,0,0,.71-.29,1.78,1.78,0,0,0,.41-.89v4.58a3.22,3.22,0,0,0-.44.14,3.26,3.26,0,0,0-.38.18m1.19-4.15a2.48,2.48,0,0,1,1.6,1.44A2.7,2.7,0,0,1,32.6,29a.14.14,0,0,0,0,.06,2.12,2.12,0,0,1-.19.42,2.9,2.9,0,0,0-1.56-.26Zm2.15.76c.06.08.11.16.16.24a1.2,1.2,0,0,0-.51.36l0-.07-.06-.12a.67.67,0,0,1,.44-.41m.41,2.84a1.59,1.59,0,0,0-.54-.13,3,3,0,0,0-.07-1.75.93.93,0,0,1,.51-.43,3.38,3.38,0,0,1,.1,2.31m-.51-3.11a1,1,0,0,0-.42.36,2.48,2.48,0,0,0-1.63-1.18v-.21a2.51,2.51,0,0,1,2.05,1m-4.3-4.88h1.18a.64.64,0,0,1,.7.56v1.79a2.14,2.14,0,0,0-.36-.57,1,1,0,0,0-.74-.22l.06-.64h0s0,0-.09,0h0c.09,0,.08,0,.08,0h0a0,0,0,0,0,0,0h0l0,0-.87-.6a.17.17,0,0,0-.18,0l-.52.32A.63.63,0,0,1,28.4,21m-4.64,1.87a9.49,9.49,0,0,0,2.32-.29L23.68,24l-2.5-1.52a7,7,0,0,0,.72.16,9.85,9.85,0,0,0,1.86.18m-6.09-1.8H19a.52.52,0,0,1,.62.48l-.53-.32a.15.15,0,0,0-.17,0l-.87.6s0,0,0,0h0l0,0h0s0,0,.1,0h0c-.12,0-.12,0-.11,0h0l.06.64a1,1,0,0,0-.74.22,1.69,1.69,0,0,0-.34.57V21.62A.71.71,0,0,1,17.6,21m-1.06,3.83v.3a2.49,2.49,0,0,0-1.62,1.18,1,1,0,0,0-.43-.36,2.54,2.54,0,0,1,2-1m-2.47,1.83a.89.89,0,0,1,.5.43,3,3,0,0,0-.06,1.75,1.53,1.53,0,0,0-.54.13,3.38,3.38,0,0,1,.1-2.31m-.5,5.45A2.76,2.76,0,0,1,14.83,30a2.59,2.59,0,0,1,2.46-.28,3.57,3.57,0,0,1,.58.3h0a7.73,7.73,0,0,1,1.21,1,4.05,4.05,0,0,0-2.72,1.2,4.11,4.11,0,0,0-1,2.51,3,3,0,0,1-1.78-2.54m2.11,2.7a3.79,3.79,0,0,1,.93-2.45,3.84,3.84,0,0,1,2.78-1.11c.37.39.72.8,1,1.17a2.73,2.73,0,0,0-1.28.88h-.41A3,3,0,0,0,15.87,35l-.19-.08m3.88-1.49a2,2,0,0,1,1.08-.61c.25.33.46.62.6.83a11.6,11.6,0,0,0-1.68-.22M16,35.77a2.31,2.31,0,0,1,.12-.52v0a2.6,2.6,0,0,1,2.5-1.51A3,3,0,0,0,18.25,38a3.07,3.07,0,0,1-1.51-.71A1.92,1.92,0,0,1,16,35.77m2.79,2.32a2.61,2.61,0,0,1-1-2.05,2.68,2.68,0,0,1,1.41-2.33l.46,0a2.91,2.91,0,0,0-1.37,2.35,2.76,2.76,0,0,0,.93,2,3.39,3.39,0,0,1-.45,0m4.53-1.93c-.37.73-1.59,1.36-3.55,1.82l-.11,0a2.54,2.54,0,0,1-1-1.92,2.76,2.76,0,0,1,1.57-2.3,9.53,9.53,0,0,1,1.35.23l.06,0a2.43,2.43,0,0,1,1.69,1.07,1.18,1.18,0,0,1,0,1M23.75,35a1.72,1.72,0,0,0-.07.21A1.8,1.8,0,0,0,23.6,35a2.73,2.73,0,0,0-1.88-1.25A19.41,19.41,0,0,0,19.54,31l.28,0c.41.31,3,2.25,3.44,3.48l0,0a.51.51,0,0,0,.4.24h0a.47.47,0,0,0,.38-.23h0v0h0c.44-1.23,3-3.17,3.45-3.48l.28,0a20.62,20.62,0,0,0-2.19,2.72A2.78,2.78,0,0,0,23.75,35m2.36-1.36c.15-.21.36-.5.61-.83a1.92,1.92,0,0,1,1.08.61,11.9,11.9,0,0,0-1.69.22m-2.06,2.54a1.18,1.18,0,0,1,0-1A2.43,2.43,0,0,1,25.75,34l.06,0a9.53,9.53,0,0,1,1.35-.23,2.76,2.76,0,0,1,1.57,2.3,2.54,2.54,0,0,1-1,1.92l-.12,0c-1.95-.46-3.17-1.09-3.54-1.82m4.08,1.91a2.76,2.76,0,0,0,.93-2,2.94,2.94,0,0,0-1.37-2.35l.46,0A2.68,2.68,0,0,1,29.56,36a2.64,2.64,0,0,1-1,2.05,3.39,3.39,0,0,1-.45,0m2.49-.74a3.07,3.07,0,0,1-1.51.71,2.95,2.95,0,0,0-.38-4.34,2.61,2.61,0,0,1,2.51,1.51v0a2.31,2.31,0,0,1,.12.52,2,2,0,0,1-.75,1.56m-2-4h-.41A2.73,2.73,0,0,0,27,32.5c.3-.37.65-.78,1-1.17a3.49,3.49,0,0,1,3.71,3.56l-.19.08a3,3,0,0,0-2.85-1.6M32,34.73A3.77,3.77,0,0,0,28.27,31a8.28,8.28,0,0,1,1.22-1h0a3.21,3.21,0,0,1,.58-.3,2.59,2.59,0,0,1,2.46.28,2.76,2.76,0,0,1,1.26,2.18A3,3,0,0,1,32,34.73" transform="translate(-12.63 -7.65)"/><path class="cls-6" d="M16,15.22c0-.89-.32-1.43-.55-1.43s-.54.54-.54,1.43.32,1.44.54,1.44.55-.55.55-1.44" transform="translate(-12.63 -7.65)"/><path class="cls-6" d="M18.48,14.57a6,6,0,0,1,5.29-3.2,5.83,5.83,0,0,1,5.49,3.82A4.38,4.38,0,0,1,30,12.6a7,7,0,0,0-6.26-4A6.89,6.89,0,0,0,17.6,12.4a3.58,3.58,0,0,1,.88,2.17" transform="translate(-12.63 -7.65)"/><path class="cls-7" d="M29.27,17.12a5.47,5.47,0,0,0-5.5-5.42,5.65,5.65,0,0,0-5.26,3.62,5.48,5.48,0,0,1-.3,1.76s0,0,0,0a5.53,5.53,0,0,0,11.05,0" transform="translate(-12.63 -7.65)"/><path class="cls-5" d="M31.43,15.22a2,2,0,0,1,.6-1.68,2.69,2.69,0,0,0-.39-.74,3.14,3.14,0,0,0-1,2.43,3.09,3.09,0,0,0,1,2.43,2.77,2.77,0,0,0,.4-.75,2,2,0,0,1-.61-1.69" transform="translate(-12.63 -7.65)"/><path class="cls-5" d="M16.14,12.8a2.45,2.45,0,0,0-.39.74,2,2,0,0,1,.59,1.68,2,2,0,0,1-.6,1.69,2.52,2.52,0,0,0,.4.75,3.09,3.09,0,0,0,1-2.43,3.14,3.14,0,0,0-1-2.43" transform="translate(-12.63 -7.65)"/><path class="cls-6" d="M18.19,15.23c0-1.54-.63-2.84-1.36-2.84a.72.72,0,0,0-.46.18,3.44,3.44,0,0,1,1.06,2.66,3.47,3.47,0,0,1-1.06,2.67.72.72,0,0,0,.46.18c.73,0,1.36-1.3,1.36-2.85" transform="translate(-12.63 -7.65)"/><path class="cls-6" d="M32.31,13.79c-.23,0-.55.54-.55,1.43s.32,1.44.55,1.44.54-.55.54-1.44-.32-1.43-.54-1.43" transform="translate(-12.63 -7.65)"/><path class="cls-6" d="M30.35,15.23a3.44,3.44,0,0,1,1.06-2.66.72.72,0,0,0-.46-.18c-.74,0-1.36,1.3-1.36,2.84s.62,2.85,1.36,2.85a.72.72,0,0,0,.46-.18,3.47,3.47,0,0,1-1.06-2.67" transform="translate(-12.63 -7.65)"/><path class="cls-6" d="M17.91,17.68a1.66,1.66,0,0,1-.61.6,7,7,0,0,0,3.13,3.56,5.75,5.75,0,0,1-2.52-4.16" transform="translate(-12.63 -7.65)"/><path class="cls-6" d="M29.6,17.16a5.69,5.69,0,0,1-2.46,4.64,7,7,0,0,0,3.11-3.67,2.46,2.46,0,0,1-.65-1" transform="translate(-12.63 -7.65)"/><path class="cls-5" d="M32.35,13.46a2.77,2.77,0,0,0-.55-1s0,0,0,0a1.15,1.15,0,0,0-.83-.4,1,1,0,0,0-.71.29,7.3,7.3,0,0,0-6.5-4.07,7.22,7.22,0,0,0-6.41,3.92,1,1,0,0,0-.5-.14,1.15,1.15,0,0,0-.83.4l0,0a2.77,2.77,0,0,0-.55,1c-.48,0-.83.79-.83,1.76s.35,1.71.82,1.76c.31.89.83,1.43,1.41,1.43l.16,0a7.38,7.38,0,0,0,2.59,3.32,7.48,7.48,0,0,0,1.75.91.14.14,0,0,0,0,.21,2.65,2.65,0,0,0,1.17.59,1.23,1.23,0,0,0,.69.53,1,1,0,0,0,1,0c.29-.15.59-.29.87-.46a4.4,4.4,0,0,0,.76-.67.14.14,0,0,0,.06-.14,7.33,7.33,0,0,0,4.65-4.4,1,1,0,0,0,.42.1c.58,0,1.1-.54,1.41-1.43.47-.05.82-.79.82-1.76s-.36-1.71-.83-1.76M23.74,8.61a7,7,0,0,1,6.26,4,4.38,4.38,0,0,0-.74,2.59,5.83,5.83,0,0,0-5.49-3.82,6,6,0,0,0-5.29,3.2,3.58,3.58,0,0,0-.88-2.17,6.89,6.89,0,0,1,6.14-3.79m0,13.92a5.49,5.49,0,0,1-5.55-5.41s0,0,0,0a5.48,5.48,0,0,0,.3-1.76,5.66,5.66,0,0,1,5.26-3.62,5.42,5.42,0,1,1,0,10.83m-8.3-5.87c-.22,0-.54-.55-.54-1.44s.32-1.43.54-1.43.55.54.55,1.43-.32,1.44-.55,1.44m.67,1a2.52,2.52,0,0,1-.4-.75,2,2,0,0,0,.6-1.69,2,2,0,0,0-.59-1.68,2.45,2.45,0,0,1,.39-.74,3.14,3.14,0,0,1,1,2.43,3.13,3.13,0,0,1-1,2.43m.69.42a.72.72,0,0,1-.46-.18,3.47,3.47,0,0,0,1.06-2.67,3.44,3.44,0,0,0-1.06-2.66.72.72,0,0,1,.46-.18c.73,0,1.36,1.3,1.36,2.84s-.63,2.85-1.36,2.85m.47.2a1.66,1.66,0,0,0,.61-.6,5.75,5.75,0,0,0,2.52,4.16,7,7,0,0,1-3.13-3.56m9.84,3.52a5.69,5.69,0,0,0,2.46-4.64,2.46,2.46,0,0,0,.65,1,7,7,0,0,1-3.11,3.67M31,18.08c-.74,0-1.36-1.3-1.36-2.85s.62-2.84,1.36-2.84a.72.72,0,0,1,.46.18,3.44,3.44,0,0,0-1.06,2.66,3.47,3.47,0,0,0,1.06,2.67.72.72,0,0,1-.46.18m.69-.42a3.09,3.09,0,0,1-1-2.43,3.14,3.14,0,0,1,1-2.43,2.69,2.69,0,0,1,.39.74,2,2,0,0,0-.6,1.68A2,2,0,0,0,32,16.91a2.77,2.77,0,0,1-.4.75m.67-1c-.23,0-.55-.55-.55-1.44s.32-1.43.55-1.43.54.54.54,1.43-.32,1.44-.54,1.44" transform="translate(-12.63 -7.65)"/><path class="cls-6" d="M23.62,12.86s2-.21,2.16.81-1,2.67-1.89,2.7a2.4,2.4,0,0,1-2.24-2.16c-.15-1.33,1.48-1.34,2-1.35" transform="translate(-12.63 -7.65)"/><path class="cls-6" d="M20.21,14.51s-.74.67-.58,3,.94,2.5.77,2.81-.79-.62-1.1-1.9.26-4.28.91-3.9" transform="translate(-12.63 -7.65)"/><path class="cls-6" d="M21.59,21.33a4.23,4.23,0,0,0,2.7.39c1.93-.16,2.11-.6,2.32-.48s-.85,1.13-2.82,1.13-2.91-1.2-2.2-1" transform="translate(-12.63 -7.65)"/><g class="cls-8"><g class="cls-9"><path class="cls-5" d="M26.76,22a3.43,3.43,0,0,1,.56-.07.49.49,0,0,0-.56.07" transform="translate(-12.63 -7.65)"/></g></g><g class="cls-8"><g class="cls-10"><path class="cls-5" d="M19.12,14.94a9.39,9.39,0,0,0-.42-2,5.94,5.94,0,0,1-.29-1.1,1.3,1.3,0,0,0-.14-.73.08.08,0,0,0-.08,0,.89.89,0,0,0-.32.75.26.26,0,0,0-.17.09c-.18,0-.23.23-.24.4a.47.47,0,0,0,0,.17c-.31-.25-.89-.46-1.19-.11a.09.09,0,0,0,.07.15.88.88,0,0,1,.65.13,1.55,1.55,0,0,1,.38.56,4.62,4.62,0,0,1,.35,1.42,7.44,7.44,0,0,1,.05.84l0,0a.78.78,0,0,1-.82.19,1,1,0,0,1-.49-.82,1.88,1.88,0,0,0-.38-.92c-.19-.2-.46-.47-.74-.45-.08,0-.16.09-.13.17s.25.33.34.53a1.85,1.85,0,0,1,.13.61A2,2,0,0,0,16,16.14a.63.63,0,0,0-.28.21c-.43.57,0,1.08.62,1.3a.49.49,0,0,0-.07.32.47.47,0,0,0,.47.41,1.35,1.35,0,0,0,.36-.08.51.51,0,0,0,.79.13,4.4,4.4,0,0,0,1.19-3.49m-1.4-2.2a.3.3,0,0,0,.21,0c0,.21.09.42.14.63a2.62,2.62,0,0,0-.35-.61" transform="translate(-12.63 -7.65)"/></g></g><g class="cls-8"><g class="cls-11"><path class="cls-5" d="M19.14,24.07A1.75,1.75,0,0,0,18,22.79a.47.47,0,0,0-.67.32l-.12.07a.17.17,0,0,0,0,.27c.13.1.29.12.42.22a1.13,1.13,0,0,1,.35.4,2.28,2.28,0,0,1,.15,1.27.4.4,0,0,0,.5.38c.57-.21.58-1.14.49-1.65" transform="translate(-12.63 -7.65)"/></g></g><g class="cls-8"><g class="cls-12"><path class="cls-5" d="M18.35,25.79a.39.39,0,0,0-.63-.11,11.27,11.27,0,0,0-.62-1.06.2.2,0,0,0-.36.1,1.72,1.72,0,0,0,.26.93,3.23,3.23,0,0,1,.39,1.13c0,.28.05.57.06.86a3.62,3.62,0,0,0,0,.93c0,.25,0,.51,0,.76s.62.48.68.09a.28.28,0,0,0,0-.09h0v0c0-.11,0-.22,0-.33q0-.56,0-1.11a1.46,1.46,0,0,1,.12-.39,2,2,0,0,0,.3-.78,1.79,1.79,0,0,0-.2-.91" transform="translate(-12.63 -7.65)"/></g></g><g class="cls-8"><g class="cls-13"><path class="cls-5" d="M33.33,26.46a2.93,2.93,0,0,0-1.07-1.36,2.1,2.1,0,0,0-.8-.3,1.35,1.35,0,0,0-.35,0c-.18,0-.22.07-.36.16a0,0,0,0,0,0,.09c.17.06.31.12.49.17a2,2,0,0,1,.62.28,2.41,2.41,0,0,1,.87,1,3.81,3.81,0,0,1,.36,1.37c0,.44.14,1.13-.39,1.29a.33.33,0,0,0-.23.41.66.66,0,0,0,.35.43.36.36,0,0,0,.48-.48c.7-.72.35-2.23,0-3" transform="translate(-12.63 -7.65)"/></g></g><g class="cls-8"><g class="cls-14"><path class="cls-5" d="M33.69,31.38A8.19,8.19,0,0,0,32.8,30a.23.23,0,0,0-.27-.09,1.09,1.09,0,0,0-.48-.44.09.09,0,0,0-.13.1c.32,1.53-.87,2.79-1.79,3.86a.35.35,0,0,0,.08.55,1,1,0,0,1,.58,1.1,1,1,0,0,1-.79.78.31.31,0,0,0-.18.12,1,1,0,0,0-.66-.06.33.33,0,0,0-.24.24,2.42,2.42,0,0,1-.53,1.17,3.27,3.27,0,0,0,.22-1.54c-.07-.66-.41-1.63-1.15-1.79a2.59,2.59,0,0,0-1.26.16,3,3,0,0,0-1.18.6,2.89,2.89,0,0,0-1,1.78c0,.07.11.11.15,0v0a.83.83,0,0,0,.5.47c.3.15.62.28.92.41.63.27,1.27.51,1.92.73A.46.46,0,0,0,28,38a.41.41,0,0,0,.61.28,1.7,1.7,0,0,0,.46-.38.37.37,0,0,0,.5.17,1.64,1.64,0,0,0,.28-.23.39.39,0,0,0,.55,0,4.25,4.25,0,0,0,.91-1.34,1.51,1.51,0,0,0,.27-.75.43.43,0,0,0-.21-.42l0-.16v0a.42.42,0,0,0,.33,0,4.11,4.11,0,0,0,2.07-2.29,2.2,2.2,0,0,0-.12-1.45m-4.1,5.21a.49.49,0,0,0,0-.12h0a.56.56,0,0,1,0,.12" transform="translate(-12.63 -7.65)"/></g></g><g class="cls-8"><g class="cls-15"><path class="cls-5" d="M32.79,14a.94.94,0,0,0-.57-.38.41.41,0,0,0,0-.19.65.65,0,0,0-.67-.67.32.32,0,0,0-.14,0,.91.91,0,0,0-.12-.35.42.42,0,0,0-.58-.15,2.55,2.55,0,0,0-1.05,1.53,3.27,3.27,0,0,1,.21-.74.85.85,0,0,0,0-.88c-.21-.35-.47-.68-.7-1a.46.46,0,0,0-.42-.21,6.6,6.6,0,0,0-.9-.85,11.82,11.82,0,0,0-2.42-1.38.59.59,0,0,0-.45,0,.29.29,0,0,1,0-.09.22.22,0,0,0-.43.12,1.11,1.11,0,0,1-.2,1.08,3.22,3.22,0,0,0-.59.69,1,1,0,0,0,.24,1.14.09.09,0,0,0,0,.11c.24.19.53.3.76.49a6.23,6.23,0,0,1,1.35,1.41,5.93,5.93,0,0,1,.91,2.87,8.92,8.92,0,0,1-.32,3.25,6.64,6.64,0,0,1-.64,1.41c-.12.21-.26.41-.38.62a1.46,1.46,0,0,1-.64.56.22.22,0,0,0-.09.22h-.1l.08.07.16,0c.42-.11.83-.28,1.25-.4h0l0,0a2.1,2.1,0,0,0,.42-.37h.07a.23.23,0,0,0,.21.18,1.26,1.26,0,0,0,.73-.25l-.09.09a3.34,3.34,0,0,1-.85.69.34.34,0,0,0,0,.58c.25.17.2.61.19.87s0,.73-.08,1.1a13.13,13.13,0,0,1-.52,2.23,6.69,6.69,0,0,1-2,3.48.14.14,0,0,0,0,.19l-.07,0a4.78,4.78,0,0,0,0-.54c0-.3,0-.59,0-.89a16.32,16.32,0,0,0-.12-2A11.36,11.36,0,0,0,24.11,26a.28.28,0,0,0,.13,0,.3.3,0,0,0,.21-.27,1.34,1.34,0,0,0-.15-.48h0c-.07-.33-.09-.79-.52-.84a.47.47,0,0,0-.32.08.31.31,0,0,0-.11.09.64.64,0,0,0-.18.29.14.14,0,0,0,0,.11h0c-.13,0-.23.21-.07.27.63.27.54.95.58,1.54s0,1,0,1.45,0,1,0,1.52l0,.77c0,.27-.07.47.1.67a1,1,0,0,1-.34-.09,5.34,5.34,0,0,1-.68-.33.39.39,0,0,0,.11-.28,12.56,12.56,0,0,0-.08-1.62.35.35,0,0,0,.14-.3l-.05-1.75,0-.85a2.56,2.56,0,0,1,0-.83.42.42,0,0,0-.18-.45l-.13-.08.12,0c.59.14.84-.79.25-.91A4.94,4.94,0,0,1,21,22.69a.24.24,0,0,0-.2-.05c-.1-.22-.24-.41-.47-.42,0,0,0,0,0,0-.08.27.08.6.06.89a.25.25,0,0,0,.08.21l-.13-.08c-.39-.24-.76-.51-1.15-.75a.94.94,0,0,0-.71-.17l-.22-.14a.09.09,0,0,0-.1,0v-.06a.46.46,0,0,0,.13-.08,5.93,5.93,0,0,0,.47-.53.26.26,0,0,0,.31-.25.26.26,0,0,0-.29-.25l0,0a3,3,0,0,0-1.46,0,.45.45,0,0,0-.37.42h0a.13.13,0,0,0-.06.14c.06.19.24.27.36.42a2,2,0,0,1,.35.59.37.37,0,0,0,.65.09.26.26,0,0,0,.34.18c.35.47.7.92,1,1.41a11.23,11.23,0,0,1,1.12,2.18,11.11,11.11,0,0,1,.64,2.34,9.08,9.08,0,0,1,.1,1.16.61.61,0,0,0,0,.15l-1-.42a14.87,14.87,0,0,0-1.55-.64c-.17-.05-.33.19-.18.31a13.56,13.56,0,0,0,1.68,1.11h0a.6.6,0,0,1-.51.32.38.38,0,0,0-.37.29.56.56,0,0,0-.34,0l-.15.07c-.17-.15-.35-.3-.54-.44a4.46,4.46,0,0,0-3.29-1.05A.27.27,0,0,0,15,30h-.29c.17-.29,0-.75-.08-1.05a3.33,3.33,0,0,1,0-1.44,3.45,3.45,0,0,1,.58-1.26,2,2,0,0,1,1.23-.87.35.35,0,0,0,.31-.23.31.31,0,0,0,0-.25.33.33,0,0,0-.36-.14A3.55,3.55,0,0,0,14.19,27,3.69,3.69,0,0,0,14,28.49a6.09,6.09,0,0,0,.17.85,2.7,2.7,0,0,0,.18.69.19.19,0,0,0,0,.34,4.8,4.8,0,0,1,3.07,1.69,4.4,4.4,0,0,1,.41.74c.13.29.18.6.49.77a1.31,1.31,0,0,0,.45.13,4.92,4.92,0,0,0-2.92,1.37.41.41,0,0,0,0,.57l-.18.14a.19.19,0,0,0,.08.31,9.73,9.73,0,0,0,1.08,0,3.76,3.76,0,0,1,1.15.25.4.4,0,0,0,.5-.38,2.35,2.35,0,0,1,.83-1.53l.43-.25a.35.35,0,0,0,.15-.4c.21,0,.43,0,.64,0h0a.42.42,0,0,0,.68,0,4,4,0,0,0,1.25.53,1.94,1.94,0,0,1,.93.75.25.25,0,0,0,.26.09.16.16,0,0,0,.26-.12c0-.09,0-.18,0-.28h0c.24,0,.41-.21.53-.41s.42-.16.63-.21a1.09,1.09,0,0,0,.74-.58.41.41,0,0,0,.67.25,4.53,4.53,0,0,0,.75-1c.25-.37.53-.72.8-1.07a7.44,7.44,0,0,1,.83-.94,8,8,0,0,0,.83-.92,0,0,0,0,0,0-.05.34.34,0,0,0,.26-.33c0-.91,0-1.83,0-2.73.07-.69.93-1.33.34-2a.2.2,0,0,0-.27,0,2.94,2.94,0,0,0,0-.82,1.23,1.23,0,0,0-.76-1.06c-.21-.08-.36.1-.38.28a.34.34,0,0,0-.23-.05.18.18,0,0,0-.13.31,1.91,1.91,0,0,1,.3,1,4.92,4.92,0,0,0,.06,1.09.32.32,0,0,0,.21.2.5.5,0,0,0-.28.08.6.6,0,0,0-.18.21.13.13,0,0,1,0-.06c-.07-.3-.35-.35-.49-.59a1.84,1.84,0,0,1-.09-1c0-.3,0-.61.08-.91a2,2,0,0,1,.62-.65.24.24,0,0,0,.06-.34.45.45,0,0,0,.3-.21s0,.09,0,.14a.64.64,0,0,0,.59.54.26.26,0,0,0,.27-.26c0-.28-.05-.56-.06-.84s.07-.48,0-.7c0-.05,0-.1-.09-.09l-.1,0a.36.36,0,0,0-.5-.14,1.77,1.77,0,0,1-.65,0,.35.35,0,0,0-.33.45h0a.49.49,0,0,0-.34.05l.28-.25a9.55,9.55,0,0,0,1.05-1.15,6.08,6.08,0,0,0,.73-1.38,1.94,1.94,0,0,0,.11-.43,2.61,2.61,0,0,0,.87-.12.35.35,0,0,0,.08-.63l-.05-.1c0-.25-.36-.45-.55-.23a.49.49,0,0,1-.54.2c-.18-.06-.29-.21-.44-.3a.13.13,0,0,0-.12,0,2.8,2.8,0,0,0-.16-1,1.38,1.38,0,0,0-.32-.52,3.86,3.86,0,0,0-.21-.81l.06.1a1.41,1.41,0,0,0,.18.37.21.21,0,0,0,.22.13.72.72,0,0,0,.34.2.93.93,0,0,0,.67-.11c.15-.07.23-.15.38-.08s.15.12.24.16a.52.52,0,0,0,.56-.1c.09-.09.25-.61.33-.61s.43.6.48.76a3,3,0,0,1,.11.84.29.29,0,0,0,.56.08A3.39,3.39,0,0,0,32.79,14m-7.44-2.11-.21-.11.27,0a.09.09,0,0,0-.06.08M20.59,23.32l.08,0h.13a2.62,2.62,0,0,0,.22.25l-.43-.26m-.65,8.26.06.05a1.49,1.49,0,0,0,.11.4L20,31.94c0-.12-.05-.25-.08-.36m3.78,1.64c0,.28,0,.58,0,.87v0a7,7,0,0,0-.39-.71,3.73,3.73,0,0,0-1.1-1c-.5-.37-.87-.87-1.34-1.26L21,31a1,1,0,0,0,.16-.3c.4.25.79.48,1.2.71a3.36,3.36,0,0,0,1.73.62,3.4,3.4,0,0,0-.35,1.15m.42.7,0,0,0-.15h.13l-.12.11m.71-3.08-.07,0a.47.47,0,0,0,.15-.06l-.08.09m.77-.58a2.55,2.55,0,0,0,.26-.3.31.31,0,0,0,.2.11,4.89,4.89,0,0,0-.46.19m1.13-.36-.34.08.37-.17a.16.16,0,0,0,0,.09m2.86-4.38s0,0,0-.05a.22.22,0,0,0,.17,0,.86.86,0,0,0,.28-.41,2.7,2.7,0,0,1-.47.77.56.56,0,0,0-.2-.11.23.23,0,0,0,.2-.15m-.28,4.15,0-.18v0a.31.31,0,0,0,.27.25,2.54,2.54,0,0,0-.41.18,2.47,2.47,0,0,0,.1-.29m-1.67-7a.35.35,0,0,0,.14.06l-.06.08h0a.18.18,0,0,0-.09.1,1,1,0,0,0-.08-.18l.09-.06m1.13,4.2c0,.21.08.42.13.63a.19.19,0,0,0-.15,0c0-.22,0-.43,0-.64m-.42,2a.78.78,0,0,0,.16-.15,3.12,3.12,0,0,1-.05.44s0,.13,0,.22l-.22-.11a.35.35,0,0,0-.41.05.37.37,0,0,0-.09.16.33.33,0,0,0,.16.38,1.75,1.75,0,0,0,.85.36l0,0-.17.14a.19.19,0,0,0-.24-.19.52.52,0,0,0-.19.11s0,0,0,0h0a1.18,1.18,0,0,1-.37-.4s-.05,0-.05,0a1.34,1.34,0,0,0,.26.64.25.25,0,0,0,.28.11l-.34.3a.24.24,0,0,0-.13-.26l-.14-.05a.37.37,0,0,0,.07-.48,1.73,1.73,0,0,1-.16-.3l0-.1a.4.4,0,0,0-.26-.24,8,8,0,0,0,1.21-.69m1.09-11,.05.07-.05.1-.06.12.06-.29m1.4-4h-.24a1,1,0,0,1,0-.1l0,0a.6.6,0,0,0,.19.06l0,0" transform="translate(-12.63 -7.65)"/></g></g><g class="cls-8"><g class="cls-16"><path class="cls-5" d="M23.36,34.9a2.8,2.8,0,0,0-2.49-.75A2,2,0,0,0,19,35.55a3.3,3.3,0,0,0,.66,2.76c.07.1.27,0,.21-.1v0h0a3.25,3.25,0,0,0,1.41-.45c.46-.21.94-.4,1.38-.65a1.51,1.51,0,0,0,.68-2.17" transform="translate(-12.63 -7.65)"/></g></g></g></g></g><text id="NOVEL_COSMOS" data-name="NOVEL COSMOS" class="cls-17" transform="translate(29.04 17.85)">N<tspan class="cls-18" x="17.01" y="0">O</tspan><tspan class="cls-19" x="34.23" y="0">V</tspan><tspan x="49.22" y="0">EL</tspan><tspan class="cls-20"><tspan x="-3.68" y="9">C</tspan><tspan class="cls-21" x="11.08" y="9">OSMOS</tspan></tspan></text></g></g></svg>